<svg width="507" height="96" viewBox="0 0 507 96" fill="none" xmlns="http://www.w3.org/2000/svg">
<mask id="path-1-outside-1_38_44" maskUnits="userSpaceOnUse" x="0.40625" y="0" width="506" height="96" fill="black">
<rect fill="white" x="0.40625" width="506" height="96"/>
<path fill-rule="evenodd" clip-rule="evenodd" d="M421.195 37.7491C421.195 38.9676 420.258 39.9616 419.07 40.0529H419.075C422.962 46.8937 426.881 51.3234 429.859 54.6892C432.93 58.1608 435 60.5006 435 63.187C435 77.0615 423.832 84 412 84C400.168 84 389 77.0615 389 63.187C389 60.4992 391.071 58.1587 394.143 54.6868C397.121 51.3211 401.04 46.8921 404.925 40.0529C403.737 39.9616 402.8 38.9676 402.8 37.7491V23.8745C402.8 22.5993 403.828 21.5633 405.099 21.5633H407.4V12.3112C407.4 11.036 408.428 10 409.699 10H414.299C415.567 10 416.598 11.0335 416.598 12.3112V21.5633H418.896C420.165 21.5633 421.195 22.5968 421.195 23.8745V37.7491ZM398.195 63.187C398.195 70.123 405.089 77.0615 411.995 77.0615C418.889 77.0615 425.795 70.1255 425.795 63.187C425.795 62.1888 423.654 59.4694 421.035 56.1426C417.584 51.7583 413.302 46.319 411.995 42.3739C410.688 46.319 406.406 51.7583 402.955 56.1426C400.336 59.4694 398.195 62.1888 398.195 63.187Z"/>
<path d="M51.6562 41.4375C49.2812 39.5625 46.5938 38.2188 43.5938 37.4062C41.6562 36.9062 39.6562 36.5625 37.5938 36.375C35.5938 36.125 33.5938 35.9062 31.5938 35.7188C27.5312 35.4062 24.3125 34.9688 21.9375 34.4062C19.625 33.8438 18.4062 32.75 18.2812 31.125C18.2812 29.5 18.5312 28.0938 19.0312 26.9062C19.5938 25.7188 20.3438 24.6875 21.2812 23.8125C22.2188 22.9375 23.3125 22.1875 24.5625 21.5625C25.8125 20.875 27.0938 20.25 28.4062 19.6875C29.5312 19.1875 30.9062 18.8438 32.5312 18.6562C34.2188 18.4062 36.0625 18.2812 38.0625 18.2812C39.9375 18.2812 41.875 18.375 43.875 18.5625C45.9375 18.75 47.875 19.0938 49.6875 19.5938C50.5625 19.6562 51.2812 19.5 51.8438 19.125C52.4062 18.75 52.75 18.25 52.875 17.625C52.9375 15.875 52.2812 14.8438 50.9062 14.5312C48.8438 14.0312 46.7188 13.6562 44.5312 13.4062C42.4062 13.1562 40.2812 13.0312 38.1562 13.0312C35.7812 13.0312 33.5625 13.1875 31.5 13.5C29.5 13.75 27.7812 14.2188 26.3438 14.9062C25.2188 15.4062 23.875 16.0312 22.3125 16.7812C20.8125 17.5312 19.3438 18.5 17.9062 19.6875C16.5312 20.875 15.3438 22.3438 14.3438 24.0938C13.4062 25.7812 12.9375 27.8438 12.9375 30.2812V30.8438C13 31.0312 13.0312 31.25 13.0312 31.5C13.2188 33.5 13.8438 35.0938 14.9062 36.2812C16.0312 37.4062 17.4375 38.3125 19.125 39C20.8125 39.625 22.6875 40.0625 24.75 40.3125C26.875 40.5625 29.0312 40.7812 31.2188 40.9688L36.8438 41.5312C38.7812 41.7188 40.5938 42.0625 42.2812 42.5625C44.7812 43.1875 46.9688 44.2812 48.8438 45.8438C50.7812 47.4062 52.375 49.125 53.625 51C54.875 52.875 55.8125 54.7812 56.4375 56.7188C57.125 58.6562 57.4688 60.2812 57.4688 61.5938L57.375 63.2812C57.3125 64.9062 57.1875 66.4688 57 67.9688C56.875 69.4688 56.4688 70.875 55.7812 72.1875C55.0938 73.5 54 74.6875 52.5 75.75C51 76.8125 48.9062 77.75 46.2188 78.5625C43.1562 79.375 40.5625 79.7812 38.4375 79.7812C36.8125 79.7812 35.125 79.5938 33.375 79.2188C31.6875 78.8438 29.5312 78.3125 26.9062 77.625C24.9062 77.0625 23.1875 76.25 21.75 75.1875C20.3125 74.0625 19.125 72.9688 18.1875 71.9062C17.25 70.7812 16.5625 69.7812 16.125 68.9062L15.4688 67.6875C15.2812 67.1875 14.9375 66.8125 14.4375 66.5625C14 66.25 13.5312 66.0938 13.0312 66.0938C12.8438 66.0938 12.5 66.1562 12 66.2812C10.9375 66.8438 10.4062 67.6562 10.4062 68.7188C10.4062 69.1562 10.5 69.5 10.6875 69.75L11.625 71.625C12.1875 72.6875 13.0625 73.9375 14.25 75.375C15.4375 76.75 16.9375 78.1562 18.75 79.5938C20.5625 80.9688 22.75 81.9688 25.3125 82.5938C28.125 83.3438 30.5 83.9375 32.4375 84.375C34.4375 84.8125 36.4375 85.0312 38.4375 85.0312C39.8125 85.0312 41.2188 84.9062 42.6562 84.6562C44.1562 84.4688 45.8125 84.0938 47.625 83.5312C51.25 82.5312 54.0625 81.25 56.0625 79.6875C58.125 78.0625 59.625 76.3438 60.5625 74.5312C61.5 72.6562 62.0625 70.7812 62.25 68.9062C62.4375 66.9688 62.5625 65.1562 62.625 63.4688L62.7188 62.0625C62.7188 59.875 62.2812 57.5312 61.4062 55.0312C60.5312 52.4688 59.2812 50.0312 57.6562 47.7188C56.0312 45.3438 54.0312 43.25 51.6562 41.4375Z"/>
<path d="M122.074 13.3891C121.843 13.0587 121.52 12.7832 121.106 12.5625C120.606 12.375 120.2 12.2812 119.887 12.2812C119.387 12.2812 118.919 12.4062 118.481 12.6562C118.106 12.8438 117.794 13.1875 117.544 13.6875C116.669 15.375 115.575 17.6875 114.262 20.625C113.012 23.5 111.762 26.5312 110.512 29.7188C109.262 32.9062 108.075 35.9688 106.95 38.9062C105.825 41.8438 104.981 44.2188 104.419 46.0312C104.106 46.9688 103.637 48.25 103.012 49.875C102.45 51.5 101.762 53.2812 100.95 55.2188C100.2 57.1562 99.3562 59.2188 98.4187 61.4062C97.5437 63.5312 96.6687 65.625 95.7937 67.6875C94.9812 69.6875 94.1687 71.5938 93.3562 73.4062C92.6062 75.2188 91.95 76.75 91.3875 78C90.5125 76 89.45 73.5312 88.2 70.5938C87.0125 67.5938 85.7937 64.5938 84.5437 61.5938C83.2937 58.5312 82.1375 55.6875 81.075 53.0625C80.0125 50.375 79.2625 48.3125 78.825 46.875C78.2625 45.125 77.4187 42.7812 76.2937 39.8438C75.1687 36.8438 73.9813 33.7812 72.7313 30.6562C71.4813 27.4688 70.2313 24.4375 68.9813 21.5625C67.7313 18.625 66.6375 16.2812 65.7 14.5312C65.2 13.5938 64.45 13.125 63.45 13.125C62.95 13.125 62.5438 13.25 62.2313 13.5C61.2938 14 60.825 14.75 60.825 15.75C60.825 16.1875 60.9188 16.5938 61.1063 16.9688C61.9188 18.5312 62.9188 20.7188 64.1063 23.5312C65.2938 26.2812 66.4813 29.1875 67.6688 32.25C68.9188 35.3125 70.1063 38.3125 71.2313 41.25C72.3563 44.1875 73.2313 46.625 73.8563 48.5625C74.2313 49.8125 74.825 51.5312 75.6375 53.7188C76.5125 55.9062 77.4812 58.2812 78.5437 60.8438C79.6062 63.4062 80.7 66.0312 81.825 68.7188C82.95 71.4062 83.9812 73.875 84.9187 76.125C85.8562 78.3125 86.6375 80.1562 87.2625 81.6562C87.95 83.1562 88.325 84 88.3875 84.1875C88.575 84.6875 88.8875 85.0625 89.325 85.3125C89.825 85.625 90.325 85.7812 90.825 85.7812C91.0125 85.7812 91.3562 85.7188 91.8562 85.5938C92.1062 85.4688 92.4187 85.2188 92.7937 84.8438C93.7937 84.7188 94.4812 84.1875 94.8562 83.25C94.9187 83.0625 95.2625 82.2188 95.8875 80.7188C96.575 79.2188 97.3875 77.375 98.325 75.1875C99.325 72.9375 100.356 70.5 101.419 67.875C102.544 65.1875 103.637 62.5625 104.7 60C105.762 57.375 106.7 54.9688 107.512 52.7812C108.387 50.5938 109.044 48.875 109.481 47.625C110.106 45.6875 110.95 43.25 112.012 40.3125C113.137 37.375 114.294 34.375 115.481 31.3125C116.731 28.25 117.95 25.3438 119.137 22.5938C120.19 20.1561 121.095 18.185 121.853 16.6804C122.067 18.0766 122.28 19.7352 122.494 21.6562C122.806 24.4688 123.088 27.4375 123.338 30.5625C123.588 33.625 123.775 36.625 123.9 39.5625C124.088 42.5 124.181 44.9062 124.181 46.7812C124.181 48.0312 124.244 49.75 124.369 51.9375C124.556 54.125 124.744 56.5312 124.931 59.1562C125.181 61.7188 125.431 64.3438 125.681 67.0312C125.931 69.7188 126.15 72.1875 126.338 74.4375C126.588 76.625 126.775 78.4688 126.9 79.9688C127.088 81.4688 127.213 82.3125 127.275 82.5C127.338 83.1875 127.619 83.75 128.119 84.1875C128.619 84.625 129.213 84.8438 129.9 84.8438H131.681C131.806 84.8438 132.556 84.75 133.931 84.5625C135.369 84.375 137.15 84.1875 139.275 84C141.462 83.8125 143.837 83.625 146.4 83.4375C148.962 83.25 151.462 83.1562 153.9 83.1562C158.775 83.1562 162.619 83.375 165.431 83.8125C168.306 84.1875 169.775 84.375 169.837 84.375C170.712 84.4375 171.4 84.2812 171.9 83.9062C172.462 83.5312 172.806 83 172.931 82.3125C172.931 80.5625 172.244 79.5312 170.869 79.2188C170.744 79.2188 169.15 79 166.087 78.5625C163.087 78.125 159.025 77.9062 153.9 77.9062C151.712 77.9062 149.494 77.9688 147.244 78.0938C145.056 78.2188 142.962 78.375 140.962 78.5625C138.962 78.75 137.181 78.9375 135.619 79.125C134.119 79.3125 132.994 79.4375 132.244 79.5C132.056 78.125 131.838 76.3125 131.588 74.0625C131.4 71.8125 131.181 69.4062 130.931 66.8438C130.681 64.2188 130.431 61.625 130.181 59.0625C129.931 56.4375 129.744 54.0625 129.619 51.9375C129.806 51.9375 130.494 51.875 131.681 51.75C132.869 51.5625 134.338 51.4062 136.088 51.2812C137.838 51.0938 139.806 50.9375 141.994 50.8125C144.244 50.625 146.494 50.4688 148.744 50.3438C149.431 50.3438 150.025 50.0938 150.525 49.5938C151.025 49.0312 151.275 48.4062 151.275 47.7188C151.275 46.9688 150.994 46.3438 150.431 45.8438C149.931 45.3438 149.337 45.0938 148.65 45.0938C146.462 45.2188 144.337 45.3438 142.275 45.4688C140.212 45.5938 138.306 45.75 136.556 45.9375C134.869 46.0625 133.4 46.2188 132.15 46.4062C130.9 46.5312 129.994 46.625 129.431 46.6875C129.431 45.125 129.369 43.1562 129.244 40.7812C129.119 38.3438 128.963 35.7812 128.775 33.0938C128.588 30.4062 128.369 27.7188 128.119 25.0312C127.869 22.3438 127.588 19.9688 127.275 17.9062C127.775 18.2188 128.306 18.375 128.869 18.375C128.994 18.375 129.744 18.2812 131.119 18.0938C132.556 17.9062 134.338 17.7188 136.463 17.5312C138.65 17.2812 141.025 17.0625 143.587 16.875C146.15 16.6875 148.65 16.5938 151.087 16.5938C153.462 16.5938 155.619 16.6875 157.556 16.875C159.556 17 161.244 17.125 162.619 17.25C164.244 17.5 165.681 17.7188 166.931 17.9062C168.744 17.9062 169.806 17.2188 170.119 15.8438C170.119 14.0938 169.431 13.0625 168.056 12.75C167.931 12.6875 166.337 12.4375 163.275 12C160.275 11.5625 156.212 11.3438 151.087 11.3438C148.525 11.3438 145.931 11.4375 143.306 11.625C140.681 11.8125 138.275 12.0312 136.088 12.2812C133.963 12.4688 132.181 12.6562 130.744 12.8438C129.369 13.0312 128.619 13.125 128.494 13.125C127.744 13.25 127.15 13.625 126.713 14.25C126.4 12.9375 125.556 12.2812 124.181 12.2812C123.306 12.4062 122.65 12.7188 122.213 13.2188C122.164 13.2747 122.117 13.3315 122.074 13.3891Z"/>
<path d="M223.819 80.25C223.444 79.6875 222.913 79.3438 222.225 79.2188C222.1 79.2188 220.506 79 217.444 78.5625C214.444 78.125 210.413 77.9062 205.35 77.9062C203.163 77.9062 200.944 77.9688 198.694 78.0938C196.444 78.2188 194.319 78.375 192.319 78.5625C190.319 78.75 188.538 78.9375 186.975 79.125C185.475 79.3125 184.35 79.4375 183.6 79.5C183.413 77.75 183.163 75.3438 182.85 72.2812C182.538 69.2188 182.225 66.0625 181.913 62.8125C181.6 59.5 181.319 56.375 181.069 53.4375C180.881 50.5 180.788 48.2812 180.788 46.7812C180.788 45.0312 180.694 42.6875 180.506 39.75C180.381 36.75 180.194 33.6562 179.944 30.4688C179.694 27.2812 179.413 24.25 179.1 21.375C178.788 18.4375 178.475 16.0938 178.163 14.3438C178.038 13.7188 177.725 13.2188 177.225 12.8438C176.725 12.4688 176.163 12.2812 175.538 12.2812C174.663 12.4062 174.006 12.7188 173.569 13.2188C173.131 13.7188 172.913 14.2812 172.913 14.9062C173.225 16.5938 173.538 18.8438 173.85 21.6562C174.163 24.4688 174.444 27.4375 174.694 30.5625C174.944 33.625 175.131 36.625 175.256 39.5625C175.444 42.5 175.538 44.9062 175.538 46.7812C175.538 48.0312 175.6 49.75 175.725 51.9375C175.913 54.125 176.1 56.5312 176.288 59.1562C176.538 61.7188 176.788 64.3438 177.038 67.0312C177.288 69.7188 177.538 72.1875 177.788 74.4375C178.038 76.625 178.225 78.4688 178.35 79.9688C178.538 81.4688 178.631 82.3125 178.631 82.5C178.756 83.1875 179.038 83.75 179.475 84.1875C179.975 84.625 180.569 84.8438 181.256 84.8438C181.506 84.8438 181.694 84.8125 181.819 84.75H182.194C182.694 84.8125 183.006 84.8438 183.131 84.8438H183.413C183.475 84.8438 184.194 84.75 185.569 84.5625C186.944 84.375 188.694 84.1875 190.819 84C192.944 83.8125 195.288 83.625 197.85 83.4375C200.413 83.25 202.913 83.1562 205.35 83.1562C210.163 83.1562 213.975 83.375 216.788 83.8125C219.663 84.1875 221.131 84.375 221.194 84.375C222.944 84.4375 223.975 83.75 224.288 82.3125C224.35 81.4375 224.194 80.75 223.819 80.25Z"/>
<path d="M257.671 13.8541C257.777 13.6321 257.917 13.4204 258.094 13.2188C258.531 12.7188 259.188 12.4062 260.062 12.2812C261.438 12.2812 262.281 12.9375 262.594 14.25C263.031 13.625 263.625 13.25 264.375 13.125C264.5 13.125 265.25 13.0312 266.625 12.8438C268.062 12.6562 269.844 12.4688 271.969 12.2812C274.156 12.0312 276.562 11.8125 279.188 11.625C281.812 11.4375 284.406 11.3438 286.969 11.3438C292.094 11.3438 296.156 11.5625 299.156 12C302.219 12.4375 303.812 12.6875 303.938 12.75C305.312 13.0625 306 14.0938 306 15.8438C305.688 17.2188 304.625 17.9062 302.812 17.9062C301.562 17.7188 300.125 17.5 298.5 17.25C297.125 17.125 295.438 17 293.438 16.875C291.5 16.6875 289.344 16.5938 286.969 16.5938C284.531 16.5938 282.031 16.6875 279.469 16.875C276.906 17.0625 274.531 17.2812 272.344 17.5312C270.219 17.7188 268.438 17.9062 267 18.0938C266.738 18.1295 266.498 18.1619 266.281 18.1909C266.139 18.5482 265.916 18.8596 265.613 19.125C265.113 19.5 264.425 19.6875 263.55 19.6875L263.406 19.6724C263.621 21.294 263.819 23.0803 264 25.0312C264.25 27.7188 264.469 30.4062 264.656 33.0938C264.844 35.7812 265 38.3438 265.125 40.7812C265.25 43.1562 265.312 45.125 265.312 46.6875C265.875 46.625 266.781 46.5312 268.031 46.4062C269.281 46.2188 270.75 46.0625 272.438 45.9375C274.188 45.75 276.094 45.5938 278.156 45.4688C280.219 45.3438 282.344 45.2188 284.531 45.0938C285.219 45.0938 285.812 45.3438 286.312 45.8438C286.875 46.3438 287.156 46.9688 287.156 47.7188C287.156 48.4062 286.906 49.0312 286.406 49.5938C285.906 50.0938 285.312 50.3438 284.625 50.3438C282.375 50.4688 280.125 50.625 277.875 50.8125C275.688 50.9375 273.719 51.0938 271.969 51.2812C270.219 51.4062 268.75 51.5625 267.562 51.75C266.375 51.875 265.688 51.9375 265.5 51.9375C265.625 54.0625 265.812 56.4375 266.062 59.0625C266.312 61.625 266.562 64.2188 266.812 66.8438C267.062 69.4062 267.281 71.8125 267.469 74.0625C267.719 76.3125 267.938 78.125 268.125 79.5C268.875 79.4375 270 79.3125 271.5 79.125C273.062 78.9375 274.844 78.75 276.844 78.5625C278.844 78.375 280.938 78.2188 283.125 78.0938C285.375 77.9688 287.594 77.9062 289.781 77.9062C294.906 77.9062 298.969 78.125 301.969 78.5625C305.031 79 306.625 79.2188 306.75 79.2188C308.125 79.5312 308.812 80.5625 308.812 82.3125C308.688 83 308.344 83.5312 307.781 83.9062C307.281 84.2812 306.594 84.4375 305.719 84.375C305.656 84.375 304.188 84.1875 301.312 83.8125C298.5 83.375 294.656 83.1562 289.781 83.1562C287.344 83.1562 284.844 83.25 282.281 83.4375C279.719 83.625 277.344 83.8125 275.156 84C273.031 84.1875 271.25 84.375 269.812 84.5625C268.438 84.75 267.688 84.8438 267.562 84.8438H265.781C265.094 84.8438 264.5 84.625 264 84.1875C263.5 83.75 263.219 83.1875 263.156 82.5C263.094 82.3125 262.969 81.4688 262.781 79.9688C262.656 78.4688 262.469 76.625 262.219 74.4375C262.031 72.1875 261.812 69.7188 261.562 67.0312C261.312 64.3438 261.062 61.7188 260.812 59.1562C260.625 56.5312 260.438 54.125 260.25 51.9375C260.125 49.75 260.062 48.0312 260.062 46.7812C260.062 44.9062 259.969 42.5 259.781 39.5625C259.656 36.625 259.469 33.625 259.219 30.5625C258.969 27.4375 258.688 24.4688 258.375 21.6562C258.276 20.7693 258.178 19.9382 258.079 19.1632C257.589 19.1211 257.069 19.0771 256.519 19.0312C254.269 18.8438 251.55 18.6875 248.363 18.5625C245.238 18.4375 241.738 18.375 237.863 18.375H236.456C236.019 18.375 235.55 18.4062 235.05 18.4688C235.3 20.5312 235.55 22.9375 235.8 25.6875C236.113 28.375 236.363 31.0938 236.55 33.8438C236.738 36.5938 236.894 39.2188 237.019 41.7188C237.144 44.1562 237.206 46.1562 237.206 47.7188C237.206 48.9062 237.269 50.5938 237.394 52.7812C237.581 54.9688 237.769 57.375 237.956 60C238.206 62.5625 238.456 65.2188 238.706 67.9688C238.956 70.6562 239.206 73.125 239.456 75.375C239.706 77.5625 239.894 79.4062 240.019 80.9062C240.206 82.3438 240.3 83.0938 240.3 83.1562C240.3 83.8438 240.05 84.4062 239.55 84.8438C239.113 85.3438 238.488 85.6562 237.675 85.7812C236.988 85.7812 236.394 85.5625 235.894 85.125C235.394 84.6875 235.113 84.125 235.05 83.4375C235.05 83.25 234.956 82.4062 234.769 80.9062C234.581 79.4062 234.363 77.5625 234.113 75.375C233.925 73.125 233.706 70.6562 233.456 67.9688C233.206 65.2812 232.956 62.6562 232.706 60.0938C232.519 57.4688 232.331 55.0625 232.144 52.875C232.019 50.6875 231.956 48.9688 231.956 47.7188C231.956 46.0312 231.894 43.9062 231.769 41.3438C231.644 38.7812 231.456 36.125 231.206 33.375C231.019 30.625 230.8 27.9375 230.55 25.3125C230.3 22.6875 230.05 20.4375 229.8 18.5625C226.425 18.6875 223.113 18.8438 219.863 19.0312C216.613 19.1562 213.738 19.3125 211.238 19.5C208.675 19.6875 206.613 19.8438 205.05 19.9688C203.425 20.0938 202.581 20.1562 202.519 20.1562C201.831 20.2188 201.238 20 200.738 19.5C200.238 19 199.956 18.3438 199.894 17.5312C199.894 16.8438 200.113 16.25 200.55 15.75C200.988 15.25 201.55 14.9688 202.238 14.9062C202.3 14.9062 203.175 14.8438 204.863 14.7188C206.55 14.5938 208.769 14.4375 211.519 14.25C214.269 14.0625 217.363 13.875 220.8 13.6875C224.3 13.5 227.831 13.3438 231.394 13.2188H231.769C231.894 13.1562 232.144 13.1562 232.519 13.2188H235.144C236.081 13.1562 236.988 13.125 237.863 13.125C241.863 13.125 245.456 13.1875 248.644 13.3125C251.831 13.4375 254.55 13.5938 256.8 13.7812C257.099 13.8055 257.39 13.8298 257.671 13.8541Z"/>
<path d="M379.856 51.8438C379.731 49.6562 379.669 47.9688 379.669 46.7812C379.669 45.0312 379.575 42.6875 379.388 39.75C379.263 36.75 379.075 33.6562 378.825 30.4688C378.575 27.2812 378.294 24.25 377.981 21.375C377.669 18.4375 377.325 16.0938 376.95 14.3438C376.638 12.9688 375.794 12.2812 374.419 12.2812C372.856 12.5312 371.981 13.25 371.794 14.4375C371.419 14.8125 371.169 15.1562 371.044 15.4688C370.481 16.9062 369.7 18.4688 368.7 20.1562C367.7 21.8438 366.638 23.5625 365.513 25.3125C364.388 27 363.231 28.6875 362.044 30.375C360.856 32.0625 359.763 33.5938 358.763 34.9688C358.138 35.8438 357.325 37.125 356.325 38.8125C355.325 40.4375 354.263 42.25 353.138 44.25C352.013 46.1875 350.825 48.2188 349.575 50.3438C348.388 52.4062 347.294 54.375 346.294 56.25C345.356 55.0625 343.95 53.3438 342.075 51.0938C340.263 48.7812 338.388 46.375 336.45 43.875C334.513 41.375 332.7 39 331.013 36.75C329.325 34.4375 328.106 32.6875 327.356 31.5C326.419 30 325.356 28.3438 324.169 26.5312C323.044 24.7188 321.856 22.9375 320.606 21.1875C319.419 19.375 318.2 17.6562 316.95 16.0312C315.7 14.3438 314.481 12.9062 313.294 11.7188C312.794 11.2188 312.169 10.9688 311.419 10.9688C310.794 10.9688 310.169 11.2188 309.544 11.7188C309.044 12.2188 308.794 12.8438 308.794 13.5938C308.856 14.0312 308.856 14.3438 308.794 14.5312V14.9062C309.106 16.5938 309.419 18.8438 309.731 21.6562C310.044 24.4688 310.325 27.4375 310.575 30.5625C310.825 33.625 311.013 36.625 311.138 39.5625C311.325 42.5 311.419 44.9062 311.419 46.7812C311.419 48.0312 311.481 49.75 311.606 51.9375C311.794 54.125 311.981 56.5312 312.169 59.1562C312.419 61.7188 312.669 64.3438 312.919 67.0312C313.169 69.7188 313.419 72.1875 313.669 74.4375C313.919 76.625 314.106 78.4688 314.231 79.9688C314.419 81.4688 314.513 82.3125 314.513 82.5C314.638 83.1875 314.919 83.75 315.356 84.1875C315.856 84.625 316.45 84.8438 317.138 84.8438C317.95 84.7812 318.575 84.5 319.013 84C319.513 83.5 319.763 82.9062 319.763 82.2188C319.763 82.1562 319.669 81.4062 319.481 79.9688C319.356 78.4688 319.169 76.625 318.919 74.4375C318.669 72.1875 318.419 69.7188 318.169 67.0312C317.919 64.2812 317.669 61.625 317.419 59.0625C317.231 56.4375 317.044 54.0312 316.856 51.8438C316.731 49.6562 316.669 47.9688 316.669 46.7812C316.669 45.4688 316.606 43.875 316.481 42C316.419 40.0625 316.325 38 316.2 35.8125C316.075 33.5625 315.919 31.2812 315.731 28.9688C315.544 26.5938 315.325 24.375 315.075 22.3125C316.513 24.3125 317.888 26.375 319.2 28.5C320.575 30.625 321.794 32.5625 322.856 34.3125C323.481 35.3125 324.388 36.6562 325.575 38.3438C326.825 39.9688 328.169 41.75 329.606 43.6875C331.106 45.625 332.638 47.5938 334.2 49.5938C335.825 51.5938 337.294 53.4375 338.606 55.125C339.919 56.75 341.013 58.125 341.888 59.25C342.763 60.3125 343.263 60.9062 343.388 61.0312L341.981 64.2188C341.794 64.5938 341.7 65 341.7 65.4375C341.7 66.5 342.138 67.2812 343.013 67.7812C343.45 67.9688 343.888 68.0625 344.325 68.0625C345.325 68.0625 346.075 67.625 346.575 66.75C346.575 66.6875 346.888 66.0625 347.513 64.875C348.2 63.6875 349.044 62.1875 350.044 60.375C351.106 58.5625 352.231 56.5625 353.419 54.375C354.669 52.125 355.888 49.9375 357.075 47.8125C358.325 45.6875 359.481 43.75 360.544 42C361.606 40.25 362.45 38.9375 363.075 38.0625C364.513 36 366.138 33.6875 367.95 31.125C369.763 28.5 371.419 25.9062 372.919 23.3438C373.106 25.2812 373.294 27.3438 373.481 29.5312C373.669 31.7188 373.825 33.875 373.95 36C374.138 38.125 374.263 40.125 374.325 42C374.388 43.875 374.419 45.4688 374.419 46.7812C374.419 48.0312 374.481 49.75 374.606 51.9375C374.794 54.125 374.981 56.5312 375.169 59.1562C375.419 61.7188 375.669 64.3438 375.919 67.0312C376.169 69.7188 376.388 72.1875 376.575 74.4375C376.825 76.625 377.013 78.4688 377.138 79.9688C377.325 81.4688 377.419 82.3125 377.419 82.5C377.544 83.1875 377.825 83.75 378.263 84.1875C378.763 84.625 379.356 84.8438 380.044 84.8438C380.919 84.7812 381.575 84.5 382.013 84C382.45 83.5 382.669 82.9062 382.669 82.2188C382.669 82.1562 382.575 81.4062 382.388 79.9688C382.263 78.4688 382.075 76.625 381.825 74.4375C381.638 72.1875 381.419 69.7188 381.169 67.0312C380.919 64.2812 380.669 61.625 380.419 59.0625C380.231 56.4375 380.044 54.0312 379.856 51.8438Z"/>
<path d="M493.425 51.8438C493.3 49.6562 493.237 47.9688 493.237 46.7812C493.237 45.0312 493.144 42.6875 492.956 39.75C492.831 36.75 492.644 33.6562 492.394 30.4688C492.144 27.2812 491.862 24.25 491.55 21.375C491.237 18.4375 490.925 16.0938 490.612 14.3438C490.487 13.7188 490.175 13.2188 489.675 12.8438C489.175 12.4688 488.612 12.2812 487.987 12.2812C487.112 12.4062 486.456 12.7188 486.019 13.2188C485.581 13.7188 485.362 14.2812 485.362 14.9062C485.675 16.5938 485.987 18.8438 486.3 21.6562C486.612 24.4688 486.894 27.4375 487.144 30.5625C487.394 33.625 487.581 36.625 487.706 39.5625C487.894 42.5 487.987 44.9062 487.987 46.7812C487.987 48.0312 488.05 49.7188 488.175 51.8438C488.3 53.9688 488.456 56.2812 488.644 58.7812C488.894 61.2812 489.144 63.8438 489.394 66.4688C489.644 69.0938 489.894 71.5312 490.144 73.7812C488.706 71.5938 487.081 69.1562 485.269 66.4688C483.519 63.7188 481.8 61.0312 480.112 58.4062C478.425 55.7812 476.894 53.375 475.519 51.1875C474.144 49 473.112 47.2812 472.425 46.0312C471.737 44.8438 470.894 43.375 469.894 41.625C468.894 39.875 467.769 38 466.519 36C465.269 34 463.956 31.9375 462.581 29.8125C461.269 27.6875 459.956 25.625 458.644 23.625C457.331 21.625 456.081 19.7812 454.894 18.0938C453.769 16.3438 452.769 14.9062 451.894 13.7812C451.331 13.0938 450.612 12.75 449.737 12.75C449.175 12.75 448.644 12.9062 448.144 13.2188C447.831 12.9688 447.456 12.75 447.019 12.5625C446.644 12.375 446.206 12.2812 445.706 12.2812C444.831 12.4062 444.175 12.7188 443.737 13.2188C443.3 13.7188 443.081 14.2812 443.081 14.9062C443.394 16.5938 443.706 18.8438 444.019 21.6562C444.331 24.4688 444.612 27.4375 444.862 30.5625C445.112 33.625 445.3 36.625 445.425 39.5625C445.612 42.5 445.706 44.9062 445.706 46.7812C445.706 48.0312 445.769 49.75 445.894 51.9375C446.081 54.125 446.269 56.5312 446.456 59.1562C446.706 61.7188 446.956 64.3438 447.206 67.0312C447.456 69.7188 447.706 72.1875 447.956 74.4375C448.206 76.625 448.394 78.4688 448.519 79.9688C448.706 81.4688 448.8 82.3125 448.8 82.5C448.862 83.1875 449.144 83.75 449.644 84.1875C450.144 84.625 450.737 84.8438 451.425 84.8438C452.237 84.7812 452.862 84.5 453.3 84C453.8 83.5 454.05 82.9062 454.05 82.2188C454.05 82.1562 453.956 81.4062 453.769 79.9688C453.644 78.4688 453.456 76.625 453.206 74.4375C452.956 72.1875 452.706 69.7188 452.456 67.0312C452.206 64.2812 451.956 61.625 451.706 59.0625C451.519 56.4375 451.331 54.0312 451.144 51.8438C451.019 49.6562 450.956 47.9688 450.956 46.7812C450.956 45.2812 450.894 43.375 450.769 41.0625C450.706 38.75 450.581 36.2812 450.394 33.6562C450.206 31.0312 449.987 28.4062 449.737 25.7812C449.487 23.1562 449.237 20.8125 448.987 18.75C450.3 20.5625 451.831 22.8125 453.581 25.5C455.331 28.1875 457.081 30.9375 458.831 33.75C460.644 36.5625 462.331 39.3125 463.894 42C465.519 44.625 466.831 46.8125 467.831 48.5625C468.519 49.8125 469.55 51.5312 470.925 53.7188C472.3 55.9062 473.8 58.2812 475.425 60.8438C477.05 63.4062 478.737 66.0312 480.487 68.7188C482.3 71.4062 483.925 73.875 485.362 76.125C486.8 78.3125 488.019 80.1562 489.019 81.6562L490.706 84.1875C491.269 84.9375 492.019 85.3125 492.956 85.3125C493.456 85.3125 493.925 85.1875 494.362 84.9375C495.675 84.3125 496.331 83.4062 496.331 82.2188C496.331 82.1562 496.237 81.4062 496.05 79.9688C495.925 78.4688 495.737 76.625 495.487 74.4375C495.237 72.1875 494.987 69.7188 494.737 67.0312C494.487 64.2812 494.237 61.625 493.987 59.0625C493.8 56.4375 493.612 54.0312 493.425 51.8438Z"/>
</mask>
<path fill-rule="evenodd" clip-rule="evenodd" d="M421.195 37.7491C421.195 38.9676 420.258 39.9616 419.07 40.0529H419.075C422.962 46.8937 426.881 51.3234 429.859 54.6892C432.93 58.1608 435 60.5006 435 63.187C435 77.0615 423.832 84 412 84C400.168 84 389 77.0615 389 63.187C389 60.4992 391.071 58.1587 394.143 54.6868C397.121 51.3211 401.04 46.8921 404.925 40.0529C403.737 39.9616 402.8 38.9676 402.8 37.7491V23.8745C402.8 22.5993 403.828 21.5633 405.099 21.5633H407.4V12.3112C407.4 11.036 408.428 10 409.699 10H414.299C415.567 10 416.598 11.0335 416.598 12.3112V21.5633H418.896C420.165 21.5633 421.195 22.5968 421.195 23.8745V37.7491ZM398.195 63.187C398.195 70.123 405.089 77.0615 411.995 77.0615C418.889 77.0615 425.795 70.1255 425.795 63.187C425.795 62.1888 423.654 59.4694 421.035 56.1426C417.584 51.7583 413.302 46.319 411.995 42.3739C410.688 46.319 406.406 51.7583 402.955 56.1426C400.336 59.4694 398.195 62.1888 398.195 63.187Z" fill="black"/>
<path d="M51.6562 41.4375C49.2812 39.5625 46.5938 38.2188 43.5938 37.4062C41.6562 36.9062 39.6562 36.5625 37.5938 36.375C35.5938 36.125 33.5938 35.9062 31.5938 35.7188C27.5312 35.4062 24.3125 34.9688 21.9375 34.4062C19.625 33.8438 18.4062 32.75 18.2812 31.125C18.2812 29.5 18.5312 28.0938 19.0312 26.9062C19.5938 25.7188 20.3438 24.6875 21.2812 23.8125C22.2188 22.9375 23.3125 22.1875 24.5625 21.5625C25.8125 20.875 27.0938 20.25 28.4062 19.6875C29.5312 19.1875 30.9062 18.8438 32.5312 18.6562C34.2188 18.4062 36.0625 18.2812 38.0625 18.2812C39.9375 18.2812 41.875 18.375 43.875 18.5625C45.9375 18.75 47.875 19.0938 49.6875 19.5938C50.5625 19.6562 51.2812 19.5 51.8438 19.125C52.4062 18.75 52.75 18.25 52.875 17.625C52.9375 15.875 52.2812 14.8438 50.9062 14.5312C48.8438 14.0312 46.7188 13.6562 44.5312 13.4062C42.4062 13.1562 40.2812 13.0312 38.1562 13.0312C35.7812 13.0312 33.5625 13.1875 31.5 13.5C29.5 13.75 27.7812 14.2188 26.3438 14.9062C25.2188 15.4062 23.875 16.0312 22.3125 16.7812C20.8125 17.5312 19.3438 18.5 17.9062 19.6875C16.5312 20.875 15.3438 22.3438 14.3438 24.0938C13.4062 25.7812 12.9375 27.8438 12.9375 30.2812V30.8438C13 31.0312 13.0312 31.25 13.0312 31.5C13.2188 33.5 13.8438 35.0938 14.9062 36.2812C16.0312 37.4062 17.4375 38.3125 19.125 39C20.8125 39.625 22.6875 40.0625 24.75 40.3125C26.875 40.5625 29.0312 40.7812 31.2188 40.9688L36.8438 41.5312C38.7812 41.7188 40.5938 42.0625 42.2812 42.5625C44.7812 43.1875 46.9688 44.2812 48.8438 45.8438C50.7812 47.4062 52.375 49.125 53.625 51C54.875 52.875 55.8125 54.7812 56.4375 56.7188C57.125 58.6562 57.4688 60.2812 57.4688 61.5938L57.375 63.2812C57.3125 64.9062 57.1875 66.4688 57 67.9688C56.875 69.4688 56.4688 70.875 55.7812 72.1875C55.0938 73.5 54 74.6875 52.5 75.75C51 76.8125 48.9062 77.75 46.2188 78.5625C43.1562 79.375 40.5625 79.7812 38.4375 79.7812C36.8125 79.7812 35.125 79.5938 33.375 79.2188C31.6875 78.8438 29.5312 78.3125 26.9062 77.625C24.9062 77.0625 23.1875 76.25 21.75 75.1875C20.3125 74.0625 19.125 72.9688 18.1875 71.9062C17.25 70.7812 16.5625 69.7812 16.125 68.9062L15.4688 67.6875C15.2812 67.1875 14.9375 66.8125 14.4375 66.5625C14 66.25 13.5312 66.0938 13.0312 66.0938C12.8438 66.0938 12.5 66.1562 12 66.2812C10.9375 66.8438 10.4062 67.6562 10.4062 68.7188C10.4062 69.1562 10.5 69.5 10.6875 69.75L11.625 71.625C12.1875 72.6875 13.0625 73.9375 14.25 75.375C15.4375 76.75 16.9375 78.1562 18.75 79.5938C20.5625 80.9688 22.75 81.9688 25.3125 82.5938C28.125 83.3438 30.5 83.9375 32.4375 84.375C34.4375 84.8125 36.4375 85.0312 38.4375 85.0312C39.8125 85.0312 41.2188 84.9062 42.6562 84.6562C44.1562 84.4688 45.8125 84.0938 47.625 83.5312C51.25 82.5312 54.0625 81.25 56.0625 79.6875C58.125 78.0625 59.625 76.3438 60.5625 74.5312C61.5 72.6562 62.0625 70.7812 62.25 68.9062C62.4375 66.9688 62.5625 65.1562 62.625 63.4688L62.7188 62.0625C62.7188 59.875 62.2812 57.5312 61.4062 55.0312C60.5312 52.4688 59.2812 50.0312 57.6562 47.7188C56.0312 45.3438 54.0312 43.25 51.6562 41.4375Z" fill="black"/>
<path d="M122.074 13.3891C121.843 13.0587 121.52 12.7832 121.106 12.5625C120.606 12.375 120.2 12.2812 119.887 12.2812C119.387 12.2812 118.919 12.4062 118.481 12.6562C118.106 12.8438 117.794 13.1875 117.544 13.6875C116.669 15.375 115.575 17.6875 114.262 20.625C113.012 23.5 111.762 26.5312 110.512 29.7188C109.262 32.9062 108.075 35.9688 106.95 38.9062C105.825 41.8438 104.981 44.2188 104.419 46.0312C104.106 46.9688 103.637 48.25 103.012 49.875C102.45 51.5 101.762 53.2812 100.95 55.2188C100.2 57.1562 99.3562 59.2188 98.4187 61.4062C97.5437 63.5312 96.6687 65.625 95.7937 67.6875C94.9812 69.6875 94.1687 71.5938 93.3562 73.4062C92.6062 75.2188 91.95 76.75 91.3875 78C90.5125 76 89.45 73.5312 88.2 70.5938C87.0125 67.5938 85.7937 64.5938 84.5437 61.5938C83.2937 58.5312 82.1375 55.6875 81.075 53.0625C80.0125 50.375 79.2625 48.3125 78.825 46.875C78.2625 45.125 77.4187 42.7812 76.2937 39.8438C75.1687 36.8438 73.9813 33.7812 72.7313 30.6562C71.4813 27.4688 70.2313 24.4375 68.9813 21.5625C67.7313 18.625 66.6375 16.2812 65.7 14.5312C65.2 13.5938 64.45 13.125 63.45 13.125C62.95 13.125 62.5438 13.25 62.2313 13.5C61.2938 14 60.825 14.75 60.825 15.75C60.825 16.1875 60.9188 16.5938 61.1063 16.9688C61.9188 18.5312 62.9188 20.7188 64.1063 23.5312C65.2938 26.2812 66.4813 29.1875 67.6688 32.25C68.9188 35.3125 70.1063 38.3125 71.2313 41.25C72.3563 44.1875 73.2313 46.625 73.8563 48.5625C74.2313 49.8125 74.825 51.5312 75.6375 53.7188C76.5125 55.9062 77.4812 58.2812 78.5437 60.8438C79.6062 63.4062 80.7 66.0312 81.825 68.7188C82.95 71.4062 83.9812 73.875 84.9187 76.125C85.8562 78.3125 86.6375 80.1562 87.2625 81.6562C87.95 83.1562 88.325 84 88.3875 84.1875C88.575 84.6875 88.8875 85.0625 89.325 85.3125C89.825 85.625 90.325 85.7812 90.825 85.7812C91.0125 85.7812 91.3562 85.7188 91.8562 85.5938C92.1062 85.4688 92.4187 85.2188 92.7937 84.8438C93.7937 84.7188 94.4812 84.1875 94.8562 83.25C94.9187 83.0625 95.2625 82.2188 95.8875 80.7188C96.575 79.2188 97.3875 77.375 98.325 75.1875C99.325 72.9375 100.356 70.5 101.419 67.875C102.544 65.1875 103.637 62.5625 104.7 60C105.762 57.375 106.7 54.9688 107.512 52.7812C108.387 50.5938 109.044 48.875 109.481 47.625C110.106 45.6875 110.95 43.25 112.012 40.3125C113.137 37.375 114.294 34.375 115.481 31.3125C116.731 28.25 117.95 25.3438 119.137 22.5938C120.19 20.1561 121.095 18.185 121.853 16.6804C122.067 18.0766 122.28 19.7352 122.494 21.6562C122.806 24.4688 123.088 27.4375 123.338 30.5625C123.588 33.625 123.775 36.625 123.9 39.5625C124.088 42.5 124.181 44.9062 124.181 46.7812C124.181 48.0312 124.244 49.75 124.369 51.9375C124.556 54.125 124.744 56.5312 124.931 59.1562C125.181 61.7188 125.431 64.3438 125.681 67.0312C125.931 69.7188 126.15 72.1875 126.338 74.4375C126.588 76.625 126.775 78.4688 126.9 79.9688C127.088 81.4688 127.213 82.3125 127.275 82.5C127.338 83.1875 127.619 83.75 128.119 84.1875C128.619 84.625 129.213 84.8438 129.9 84.8438H131.681C131.806 84.8438 132.556 84.75 133.931 84.5625C135.369 84.375 137.15 84.1875 139.275 84C141.462 83.8125 143.837 83.625 146.4 83.4375C148.962 83.25 151.462 83.1562 153.9 83.1562C158.775 83.1562 162.619 83.375 165.431 83.8125C168.306 84.1875 169.775 84.375 169.837 84.375C170.712 84.4375 171.4 84.2812 171.9 83.9062C172.462 83.5312 172.806 83 172.931 82.3125C172.931 80.5625 172.244 79.5312 170.869 79.2188C170.744 79.2188 169.15 79 166.087 78.5625C163.087 78.125 159.025 77.9062 153.9 77.9062C151.712 77.9062 149.494 77.9688 147.244 78.0938C145.056 78.2188 142.962 78.375 140.962 78.5625C138.962 78.75 137.181 78.9375 135.619 79.125C134.119 79.3125 132.994 79.4375 132.244 79.5C132.056 78.125 131.838 76.3125 131.588 74.0625C131.4 71.8125 131.181 69.4062 130.931 66.8438C130.681 64.2188 130.431 61.625 130.181 59.0625C129.931 56.4375 129.744 54.0625 129.619 51.9375C129.806 51.9375 130.494 51.875 131.681 51.75C132.869 51.5625 134.338 51.4062 136.088 51.2812C137.838 51.0938 139.806 50.9375 141.994 50.8125C144.244 50.625 146.494 50.4688 148.744 50.3438C149.431 50.3438 150.025 50.0938 150.525 49.5938C151.025 49.0312 151.275 48.4062 151.275 47.7188C151.275 46.9688 150.994 46.3438 150.431 45.8438C149.931 45.3438 149.337 45.0938 148.65 45.0938C146.462 45.2188 144.337 45.3438 142.275 45.4688C140.212 45.5938 138.306 45.75 136.556 45.9375C134.869 46.0625 133.4 46.2188 132.15 46.4062C130.9 46.5312 129.994 46.625 129.431 46.6875C129.431 45.125 129.369 43.1562 129.244 40.7812C129.119 38.3438 128.963 35.7812 128.775 33.0938C128.588 30.4062 128.369 27.7188 128.119 25.0312C127.869 22.3438 127.588 19.9688 127.275 17.9062C127.775 18.2188 128.306 18.375 128.869 18.375C128.994 18.375 129.744 18.2812 131.119 18.0938C132.556 17.9062 134.338 17.7188 136.463 17.5312C138.65 17.2812 141.025 17.0625 143.587 16.875C146.15 16.6875 148.65 16.5938 151.087 16.5938C153.462 16.5938 155.619 16.6875 157.556 16.875C159.556 17 161.244 17.125 162.619 17.25C164.244 17.5 165.681 17.7188 166.931 17.9062C168.744 17.9062 169.806 17.2188 170.119 15.8438C170.119 14.0938 169.431 13.0625 168.056 12.75C167.931 12.6875 166.337 12.4375 163.275 12C160.275 11.5625 156.212 11.3438 151.087 11.3438C148.525 11.3438 145.931 11.4375 143.306 11.625C140.681 11.8125 138.275 12.0312 136.088 12.2812C133.963 12.4688 132.181 12.6562 130.744 12.8438C129.369 13.0312 128.619 13.125 128.494 13.125C127.744 13.25 127.15 13.625 126.713 14.25C126.4 12.9375 125.556 12.2812 124.181 12.2812C123.306 12.4062 122.65 12.7188 122.213 13.2188C122.164 13.2747 122.117 13.3315 122.074 13.3891Z" fill="black"/>
<path d="M223.819 80.25C223.444 79.6875 222.913 79.3438 222.225 79.2188C222.1 79.2188 220.506 79 217.444 78.5625C214.444 78.125 210.413 77.9062 205.35 77.9062C203.163 77.9062 200.944 77.9688 198.694 78.0938C196.444 78.2188 194.319 78.375 192.319 78.5625C190.319 78.75 188.538 78.9375 186.975 79.125C185.475 79.3125 184.35 79.4375 183.6 79.5C183.413 77.75 183.163 75.3438 182.85 72.2812C182.538 69.2188 182.225 66.0625 181.913 62.8125C181.6 59.5 181.319 56.375 181.069 53.4375C180.881 50.5 180.788 48.2812 180.788 46.7812C180.788 45.0312 180.694 42.6875 180.506 39.75C180.381 36.75 180.194 33.6562 179.944 30.4688C179.694 27.2812 179.413 24.25 179.1 21.375C178.788 18.4375 178.475 16.0938 178.163 14.3438C178.038 13.7188 177.725 13.2188 177.225 12.8438C176.725 12.4688 176.163 12.2812 175.538 12.2812C174.663 12.4062 174.006 12.7188 173.569 13.2188C173.131 13.7188 172.913 14.2812 172.913 14.9062C173.225 16.5938 173.538 18.8438 173.85 21.6562C174.163 24.4688 174.444 27.4375 174.694 30.5625C174.944 33.625 175.131 36.625 175.256 39.5625C175.444 42.5 175.538 44.9062 175.538 46.7812C175.538 48.0312 175.6 49.75 175.725 51.9375C175.913 54.125 176.1 56.5312 176.288 59.1562C176.538 61.7188 176.788 64.3438 177.038 67.0312C177.288 69.7188 177.538 72.1875 177.788 74.4375C178.038 76.625 178.225 78.4688 178.35 79.9688C178.538 81.4688 178.631 82.3125 178.631 82.5C178.756 83.1875 179.038 83.75 179.475 84.1875C179.975 84.625 180.569 84.8438 181.256 84.8438C181.506 84.8438 181.694 84.8125 181.819 84.75H182.194C182.694 84.8125 183.006 84.8438 183.131 84.8438H183.413C183.475 84.8438 184.194 84.75 185.569 84.5625C186.944 84.375 188.694 84.1875 190.819 84C192.944 83.8125 195.288 83.625 197.85 83.4375C200.413 83.25 202.913 83.1562 205.35 83.1562C210.163 83.1562 213.975 83.375 216.788 83.8125C219.663 84.1875 221.131 84.375 221.194 84.375C222.944 84.4375 223.975 83.75 224.288 82.3125C224.35 81.4375 224.194 80.75 223.819 80.25Z" fill="black"/>
<path d="M257.671 13.8541C257.777 13.6321 257.917 13.4204 258.094 13.2188C258.531 12.7188 259.188 12.4062 260.062 12.2812C261.438 12.2812 262.281 12.9375 262.594 14.25C263.031 13.625 263.625 13.25 264.375 13.125C264.5 13.125 265.25 13.0312 266.625 12.8438C268.062 12.6562 269.844 12.4688 271.969 12.2812C274.156 12.0312 276.562 11.8125 279.188 11.625C281.812 11.4375 284.406 11.3438 286.969 11.3438C292.094 11.3438 296.156 11.5625 299.156 12C302.219 12.4375 303.812 12.6875 303.938 12.75C305.312 13.0625 306 14.0938 306 15.8438C305.688 17.2188 304.625 17.9062 302.812 17.9062C301.562 17.7188 300.125 17.5 298.5 17.25C297.125 17.125 295.438 17 293.438 16.875C291.5 16.6875 289.344 16.5938 286.969 16.5938C284.531 16.5938 282.031 16.6875 279.469 16.875C276.906 17.0625 274.531 17.2812 272.344 17.5312C270.219 17.7188 268.438 17.9062 267 18.0938C266.738 18.1295 266.498 18.1619 266.281 18.1909C266.139 18.5482 265.916 18.8596 265.613 19.125C265.113 19.5 264.425 19.6875 263.55 19.6875L263.406 19.6724C263.621 21.294 263.819 23.0803 264 25.0312C264.25 27.7188 264.469 30.4062 264.656 33.0938C264.844 35.7812 265 38.3438 265.125 40.7812C265.25 43.1562 265.312 45.125 265.312 46.6875C265.875 46.625 266.781 46.5312 268.031 46.4062C269.281 46.2188 270.75 46.0625 272.438 45.9375C274.188 45.75 276.094 45.5938 278.156 45.4688C280.219 45.3438 282.344 45.2188 284.531 45.0938C285.219 45.0938 285.812 45.3438 286.312 45.8438C286.875 46.3438 287.156 46.9688 287.156 47.7188C287.156 48.4062 286.906 49.0312 286.406 49.5938C285.906 50.0938 285.312 50.3438 284.625 50.3438C282.375 50.4688 280.125 50.625 277.875 50.8125C275.688 50.9375 273.719 51.0938 271.969 51.2812C270.219 51.4062 268.75 51.5625 267.562 51.75C266.375 51.875 265.688 51.9375 265.5 51.9375C265.625 54.0625 265.812 56.4375 266.062 59.0625C266.312 61.625 266.562 64.2188 266.812 66.8438C267.062 69.4062 267.281 71.8125 267.469 74.0625C267.719 76.3125 267.938 78.125 268.125 79.5C268.875 79.4375 270 79.3125 271.5 79.125C273.062 78.9375 274.844 78.75 276.844 78.5625C278.844 78.375 280.938 78.2188 283.125 78.0938C285.375 77.9688 287.594 77.9062 289.781 77.9062C294.906 77.9062 298.969 78.125 301.969 78.5625C305.031 79 306.625 79.2188 306.75 79.2188C308.125 79.5312 308.812 80.5625 308.812 82.3125C308.688 83 308.344 83.5312 307.781 83.9062C307.281 84.2812 306.594 84.4375 305.719 84.375C305.656 84.375 304.188 84.1875 301.312 83.8125C298.5 83.375 294.656 83.1562 289.781 83.1562C287.344 83.1562 284.844 83.25 282.281 83.4375C279.719 83.625 277.344 83.8125 275.156 84C273.031 84.1875 271.25 84.375 269.812 84.5625C268.438 84.75 267.688 84.8438 267.562 84.8438H265.781C265.094 84.8438 264.5 84.625 264 84.1875C263.5 83.75 263.219 83.1875 263.156 82.5C263.094 82.3125 262.969 81.4688 262.781 79.9688C262.656 78.4688 262.469 76.625 262.219 74.4375C262.031 72.1875 261.812 69.7188 261.562 67.0312C261.312 64.3438 261.062 61.7188 260.812 59.1562C260.625 56.5312 260.438 54.125 260.25 51.9375C260.125 49.75 260.062 48.0312 260.062 46.7812C260.062 44.9062 259.969 42.5 259.781 39.5625C259.656 36.625 259.469 33.625 259.219 30.5625C258.969 27.4375 258.688 24.4688 258.375 21.6562C258.276 20.7693 258.178 19.9382 258.079 19.1632C257.589 19.1211 257.069 19.0771 256.519 19.0312C254.269 18.8438 251.55 18.6875 248.363 18.5625C245.238 18.4375 241.738 18.375 237.863 18.375H236.456C236.019 18.375 235.55 18.4062 235.05 18.4688C235.3 20.5312 235.55 22.9375 235.8 25.6875C236.113 28.375 236.363 31.0938 236.55 33.8438C236.738 36.5938 236.894 39.2188 237.019 41.7188C237.144 44.1562 237.206 46.1562 237.206 47.7188C237.206 48.9062 237.269 50.5938 237.394 52.7812C237.581 54.9688 237.769 57.375 237.956 60C238.206 62.5625 238.456 65.2188 238.706 67.9688C238.956 70.6562 239.206 73.125 239.456 75.375C239.706 77.5625 239.894 79.4062 240.019 80.9062C240.206 82.3438 240.3 83.0938 240.3 83.1562C240.3 83.8438 240.05 84.4062 239.55 84.8438C239.113 85.3438 238.488 85.6562 237.675 85.7812C236.988 85.7812 236.394 85.5625 235.894 85.125C235.394 84.6875 235.113 84.125 235.05 83.4375C235.05 83.25 234.956 82.4062 234.769 80.9062C234.581 79.4062 234.363 77.5625 234.113 75.375C233.925 73.125 233.706 70.6562 233.456 67.9688C233.206 65.2812 232.956 62.6562 232.706 60.0938C232.519 57.4688 232.331 55.0625 232.144 52.875C232.019 50.6875 231.956 48.9688 231.956 47.7188C231.956 46.0312 231.894 43.9062 231.769 41.3438C231.644 38.7812 231.456 36.125 231.206 33.375C231.019 30.625 230.8 27.9375 230.55 25.3125C230.3 22.6875 230.05 20.4375 229.8 18.5625C226.425 18.6875 223.113 18.8438 219.863 19.0312C216.613 19.1562 213.738 19.3125 211.238 19.5C208.675 19.6875 206.613 19.8438 205.05 19.9688C203.425 20.0938 202.581 20.1562 202.519 20.1562C201.831 20.2188 201.238 20 200.738 19.5C200.238 19 199.956 18.3438 199.894 17.5312C199.894 16.8438 200.113 16.25 200.55 15.75C200.988 15.25 201.55 14.9688 202.238 14.9062C202.3 14.9062 203.175 14.8438 204.863 14.7188C206.55 14.5938 208.769 14.4375 211.519 14.25C214.269 14.0625 217.363 13.875 220.8 13.6875C224.3 13.5 227.831 13.3438 231.394 13.2188H231.769C231.894 13.1562 232.144 13.1562 232.519 13.2188H235.144C236.081 13.1562 236.988 13.125 237.863 13.125C241.863 13.125 245.456 13.1875 248.644 13.3125C251.831 13.4375 254.55 13.5938 256.8 13.7812C257.099 13.8055 257.39 13.8298 257.671 13.8541Z" fill="black"/>
<path d="M379.856 51.8438C379.731 49.6562 379.669 47.9688 379.669 46.7812C379.669 45.0312 379.575 42.6875 379.388 39.75C379.263 36.75 379.075 33.6562 378.825 30.4688C378.575 27.2812 378.294 24.25 377.981 21.375C377.669 18.4375 377.325 16.0938 376.95 14.3438C376.638 12.9688 375.794 12.2812 374.419 12.2812C372.856 12.5312 371.981 13.25 371.794 14.4375C371.419 14.8125 371.169 15.1562 371.044 15.4688C370.481 16.9062 369.7 18.4688 368.7 20.1562C367.7 21.8438 366.638 23.5625 365.513 25.3125C364.388 27 363.231 28.6875 362.044 30.375C360.856 32.0625 359.763 33.5938 358.763 34.9688C358.138 35.8438 357.325 37.125 356.325 38.8125C355.325 40.4375 354.263 42.25 353.138 44.25C352.013 46.1875 350.825 48.2188 349.575 50.3438C348.388 52.4062 347.294 54.375 346.294 56.25C345.356 55.0625 343.95 53.3438 342.075 51.0938C340.263 48.7812 338.388 46.375 336.45 43.875C334.513 41.375 332.7 39 331.013 36.75C329.325 34.4375 328.106 32.6875 327.356 31.5C326.419 30 325.356 28.3438 324.169 26.5312C323.044 24.7188 321.856 22.9375 320.606 21.1875C319.419 19.375 318.2 17.6562 316.95 16.0312C315.7 14.3438 314.481 12.9062 313.294 11.7188C312.794 11.2188 312.169 10.9688 311.419 10.9688C310.794 10.9688 310.169 11.2188 309.544 11.7188C309.044 12.2188 308.794 12.8438 308.794 13.5938C308.856 14.0312 308.856 14.3438 308.794 14.5312V14.9062C309.106 16.5938 309.419 18.8438 309.731 21.6562C310.044 24.4688 310.325 27.4375 310.575 30.5625C310.825 33.625 311.013 36.625 311.138 39.5625C311.325 42.5 311.419 44.9062 311.419 46.7812C311.419 48.0312 311.481 49.75 311.606 51.9375C311.794 54.125 311.981 56.5312 312.169 59.1562C312.419 61.7188 312.669 64.3438 312.919 67.0312C313.169 69.7188 313.419 72.1875 313.669 74.4375C313.919 76.625 314.106 78.4688 314.231 79.9688C314.419 81.4688 314.513 82.3125 314.513 82.5C314.638 83.1875 314.919 83.75 315.356 84.1875C315.856 84.625 316.45 84.8438 317.138 84.8438C317.95 84.7812 318.575 84.5 319.013 84C319.513 83.5 319.763 82.9062 319.763 82.2188C319.763 82.1562 319.669 81.4062 319.481 79.9688C319.356 78.4688 319.169 76.625 318.919 74.4375C318.669 72.1875 318.419 69.7188 318.169 67.0312C317.919 64.2812 317.669 61.625 317.419 59.0625C317.231 56.4375 317.044 54.0312 316.856 51.8438C316.731 49.6562 316.669 47.9688 316.669 46.7812C316.669 45.4688 316.606 43.875 316.481 42C316.419 40.0625 316.325 38 316.2 35.8125C316.075 33.5625 315.919 31.2812 315.731 28.9688C315.544 26.5938 315.325 24.375 315.075 22.3125C316.513 24.3125 317.888 26.375 319.2 28.5C320.575 30.625 321.794 32.5625 322.856 34.3125C323.481 35.3125 324.388 36.6562 325.575 38.3438C326.825 39.9688 328.169 41.75 329.606 43.6875C331.106 45.625 332.638 47.5938 334.2 49.5938C335.825 51.5938 337.294 53.4375 338.606 55.125C339.919 56.75 341.013 58.125 341.888 59.25C342.763 60.3125 343.263 60.9062 343.388 61.0312L341.981 64.2188C341.794 64.5938 341.7 65 341.7 65.4375C341.7 66.5 342.138 67.2812 343.013 67.7812C343.45 67.9688 343.888 68.0625 344.325 68.0625C345.325 68.0625 346.075 67.625 346.575 66.75C346.575 66.6875 346.888 66.0625 347.513 64.875C348.2 63.6875 349.044 62.1875 350.044 60.375C351.106 58.5625 352.231 56.5625 353.419 54.375C354.669 52.125 355.888 49.9375 357.075 47.8125C358.325 45.6875 359.481 43.75 360.544 42C361.606 40.25 362.45 38.9375 363.075 38.0625C364.513 36 366.138 33.6875 367.95 31.125C369.763 28.5 371.419 25.9062 372.919 23.3438C373.106 25.2812 373.294 27.3438 373.481 29.5312C373.669 31.7188 373.825 33.875 373.95 36C374.138 38.125 374.263 40.125 374.325 42C374.388 43.875 374.419 45.4688 374.419 46.7812C374.419 48.0312 374.481 49.75 374.606 51.9375C374.794 54.125 374.981 56.5312 375.169 59.1562C375.419 61.7188 375.669 64.3438 375.919 67.0312C376.169 69.7188 376.388 72.1875 376.575 74.4375C376.825 76.625 377.013 78.4688 377.138 79.9688C377.325 81.4688 377.419 82.3125 377.419 82.5C377.544 83.1875 377.825 83.75 378.263 84.1875C378.763 84.625 379.356 84.8438 380.044 84.8438C380.919 84.7812 381.575 84.5 382.013 84C382.45 83.5 382.669 82.9062 382.669 82.2188C382.669 82.1562 382.575 81.4062 382.388 79.9688C382.263 78.4688 382.075 76.625 381.825 74.4375C381.638 72.1875 381.419 69.7188 381.169 67.0312C380.919 64.2812 380.669 61.625 380.419 59.0625C380.231 56.4375 380.044 54.0312 379.856 51.8438Z" fill="black"/>
<path d="M493.425 51.8438C493.3 49.6562 493.237 47.9688 493.237 46.7812C493.237 45.0312 493.144 42.6875 492.956 39.75C492.831 36.75 492.644 33.6562 492.394 30.4688C492.144 27.2812 491.862 24.25 491.55 21.375C491.237 18.4375 490.925 16.0938 490.612 14.3438C490.487 13.7188 490.175 13.2188 489.675 12.8438C489.175 12.4688 488.612 12.2812 487.987 12.2812C487.112 12.4062 486.456 12.7188 486.019 13.2188C485.581 13.7188 485.362 14.2812 485.362 14.9062C485.675 16.5938 485.987 18.8438 486.3 21.6562C486.612 24.4688 486.894 27.4375 487.144 30.5625C487.394 33.625 487.581 36.625 487.706 39.5625C487.894 42.5 487.987 44.9062 487.987 46.7812C487.987 48.0312 488.05 49.7188 488.175 51.8438C488.3 53.9688 488.456 56.2812 488.644 58.7812C488.894 61.2812 489.144 63.8438 489.394 66.4688C489.644 69.0938 489.894 71.5312 490.144 73.7812C488.706 71.5938 487.081 69.1562 485.269 66.4688C483.519 63.7188 481.8 61.0312 480.112 58.4062C478.425 55.7812 476.894 53.375 475.519 51.1875C474.144 49 473.112 47.2812 472.425 46.0312C471.737 44.8438 470.894 43.375 469.894 41.625C468.894 39.875 467.769 38 466.519 36C465.269 34 463.956 31.9375 462.581 29.8125C461.269 27.6875 459.956 25.625 458.644 23.625C457.331 21.625 456.081 19.7812 454.894 18.0938C453.769 16.3438 452.769 14.9062 451.894 13.7812C451.331 13.0938 450.612 12.75 449.737 12.75C449.175 12.75 448.644 12.9062 448.144 13.2188C447.831 12.9688 447.456 12.75 447.019 12.5625C446.644 12.375 446.206 12.2812 445.706 12.2812C444.831 12.4062 444.175 12.7188 443.737 13.2188C443.3 13.7188 443.081 14.2812 443.081 14.9062C443.394 16.5938 443.706 18.8438 444.019 21.6562C444.331 24.4688 444.612 27.4375 444.862 30.5625C445.112 33.625 445.3 36.625 445.425 39.5625C445.612 42.5 445.706 44.9062 445.706 46.7812C445.706 48.0312 445.769 49.75 445.894 51.9375C446.081 54.125 446.269 56.5312 446.456 59.1562C446.706 61.7188 446.956 64.3438 447.206 67.0312C447.456 69.7188 447.706 72.1875 447.956 74.4375C448.206 76.625 448.394 78.4688 448.519 79.9688C448.706 81.4688 448.8 82.3125 448.8 82.5C448.862 83.1875 449.144 83.75 449.644 84.1875C450.144 84.625 450.737 84.8438 451.425 84.8438C452.237 84.7812 452.862 84.5 453.3 84C453.8 83.5 454.05 82.9062 454.05 82.2188C454.05 82.1562 453.956 81.4062 453.769 79.9688C453.644 78.4688 453.456 76.625 453.206 74.4375C452.956 72.1875 452.706 69.7188 452.456 67.0312C452.206 64.2812 451.956 61.625 451.706 59.0625C451.519 56.4375 451.331 54.0312 451.144 51.8438C451.019 49.6562 450.956 47.9688 450.956 46.7812C450.956 45.2812 450.894 43.375 450.769 41.0625C450.706 38.75 450.581 36.2812 450.394 33.6562C450.206 31.0312 449.987 28.4062 449.737 25.7812C449.487 23.1562 449.237 20.8125 448.987 18.75C450.3 20.5625 451.831 22.8125 453.581 25.5C455.331 28.1875 457.081 30.9375 458.831 33.75C460.644 36.5625 462.331 39.3125 463.894 42C465.519 44.625 466.831 46.8125 467.831 48.5625C468.519 49.8125 469.55 51.5312 470.925 53.7188C472.3 55.9062 473.8 58.2812 475.425 60.8438C477.05 63.4062 478.737 66.0312 480.487 68.7188C482.3 71.4062 483.925 73.875 485.362 76.125C486.8 78.3125 488.019 80.1562 489.019 81.6562L490.706 84.1875C491.269 84.9375 492.019 85.3125 492.956 85.3125C493.456 85.3125 493.925 85.1875 494.362 84.9375C495.675 84.3125 496.331 83.4062 496.331 82.2188C496.331 82.1562 496.237 81.4062 496.05 79.9688C495.925 78.4688 495.737 76.625 495.487 74.4375C495.237 72.1875 494.987 69.7188 494.737 67.0312C494.487 64.2812 494.237 61.625 493.987 59.0625C493.8 56.4375 493.612 54.0312 493.425 51.8438Z" fill="black"/>
<path fill-rule="evenodd" clip-rule="evenodd" d="M421.195 37.7491C421.195 38.9676 420.258 39.9616 419.07 40.0529H419.075C422.962 46.8937 426.881 51.3234 429.859 54.6892C432.93 58.1608 435 60.5006 435 63.187C435 77.0615 423.832 84 412 84C400.168 84 389 77.0615 389 63.187C389 60.4992 391.071 58.1587 394.143 54.6868C397.121 51.3211 401.04 46.8921 404.925 40.0529C403.737 39.9616 402.8 38.9676 402.8 37.7491V23.8745C402.8 22.5993 403.828 21.5633 405.099 21.5633H407.4V12.3112C407.4 11.036 408.428 10 409.699 10H414.299C415.567 10 416.598 11.0335 416.598 12.3112V21.5633H418.896C420.165 21.5633 421.195 22.5968 421.195 23.8745V37.7491ZM398.195 63.187C398.195 70.123 405.089 77.0615 411.995 77.0615C418.889 77.0615 425.795 70.1255 425.795 63.187C425.795 62.1888 423.654 59.4694 421.035 56.1426C417.584 51.7583 413.302 46.319 411.995 42.3739C410.688 46.319 406.406 51.7583 402.955 56.1426C400.336 59.4694 398.195 62.1888 398.195 63.187Z" stroke="#3366FF" stroke-width="20" stroke-linejoin="round" mask="url(#path-1-outside-1_38_44)"/>
<path d="M51.6562 41.4375C49.2812 39.5625 46.5938 38.2188 43.5938 37.4062C41.6562 36.9062 39.6562 36.5625 37.5938 36.375C35.5938 36.125 33.5938 35.9062 31.5938 35.7188C27.5312 35.4062 24.3125 34.9688 21.9375 34.4062C19.625 33.8438 18.4062 32.75 18.2812 31.125C18.2812 29.5 18.5312 28.0938 19.0312 26.9062C19.5938 25.7188 20.3438 24.6875 21.2812 23.8125C22.2188 22.9375 23.3125 22.1875 24.5625 21.5625C25.8125 20.875 27.0938 20.25 28.4062 19.6875C29.5312 19.1875 30.9062 18.8438 32.5312 18.6562C34.2188 18.4062 36.0625 18.2812 38.0625 18.2812C39.9375 18.2812 41.875 18.375 43.875 18.5625C45.9375 18.75 47.875 19.0938 49.6875 19.5938C50.5625 19.6562 51.2812 19.5 51.8438 19.125C52.4062 18.75 52.75 18.25 52.875 17.625C52.9375 15.875 52.2812 14.8438 50.9062 14.5312C48.8438 14.0312 46.7188 13.6562 44.5312 13.4062C42.4062 13.1562 40.2812 13.0312 38.1562 13.0312C35.7812 13.0312 33.5625 13.1875 31.5 13.5C29.5 13.75 27.7812 14.2188 26.3438 14.9062C25.2188 15.4062 23.875 16.0312 22.3125 16.7812C20.8125 17.5312 19.3438 18.5 17.9062 19.6875C16.5312 20.875 15.3438 22.3438 14.3438 24.0938C13.4062 25.7812 12.9375 27.8438 12.9375 30.2812V30.8438C13 31.0312 13.0312 31.25 13.0312 31.5C13.2188 33.5 13.8438 35.0938 14.9062 36.2812C16.0312 37.4062 17.4375 38.3125 19.125 39C20.8125 39.625 22.6875 40.0625 24.75 40.3125C26.875 40.5625 29.0312 40.7812 31.2188 40.9688L36.8438 41.5312C38.7812 41.7188 40.5938 42.0625 42.2812 42.5625C44.7812 43.1875 46.9688 44.2812 48.8438 45.8438C50.7812 47.4062 52.375 49.125 53.625 51C54.875 52.875 55.8125 54.7812 56.4375 56.7188C57.125 58.6562 57.4688 60.2812 57.4688 61.5938L57.375 63.2812C57.3125 64.9062 57.1875 66.4688 57 67.9688C56.875 69.4688 56.4688 70.875 55.7812 72.1875C55.0938 73.5 54 74.6875 52.5 75.75C51 76.8125 48.9062 77.75 46.2188 78.5625C43.1562 79.375 40.5625 79.7812 38.4375 79.7812C36.8125 79.7812 35.125 79.5938 33.375 79.2188C31.6875 78.8438 29.5312 78.3125 26.9062 77.625C24.9062 77.0625 23.1875 76.25 21.75 75.1875C20.3125 74.0625 19.125 72.9688 18.1875 71.9062C17.25 70.7812 16.5625 69.7812 16.125 68.9062L15.4688 67.6875C15.2812 67.1875 14.9375 66.8125 14.4375 66.5625C14 66.25 13.5312 66.0938 13.0312 66.0938C12.8438 66.0938 12.5 66.1562 12 66.2812C10.9375 66.8438 10.4062 67.6562 10.4062 68.7188C10.4062 69.1562 10.5 69.5 10.6875 69.75L11.625 71.625C12.1875 72.6875 13.0625 73.9375 14.25 75.375C15.4375 76.75 16.9375 78.1562 18.75 79.5938C20.5625 80.9688 22.75 81.9688 25.3125 82.5938C28.125 83.3438 30.5 83.9375 32.4375 84.375C34.4375 84.8125 36.4375 85.0312 38.4375 85.0312C39.8125 85.0312 41.2188 84.9062 42.6562 84.6562C44.1562 84.4688 45.8125 84.0938 47.625 83.5312C51.25 82.5312 54.0625 81.25 56.0625 79.6875C58.125 78.0625 59.625 76.3438 60.5625 74.5312C61.5 72.6562 62.0625 70.7812 62.25 68.9062C62.4375 66.9688 62.5625 65.1562 62.625 63.4688L62.7188 62.0625C62.7188 59.875 62.2812 57.5312 61.4062 55.0312C60.5312 52.4688 59.2812 50.0312 57.6562 47.7188C56.0312 45.3438 54.0312 43.25 51.6562 41.4375Z" stroke="#3366FF" stroke-width="20" stroke-linejoin="round" mask="url(#path-1-outside-1_38_44)"/>
<path d="M122.074 13.3891C121.843 13.0587 121.52 12.7832 121.106 12.5625C120.606 12.375 120.2 12.2812 119.887 12.2812C119.387 12.2812 118.919 12.4062 118.481 12.6562C118.106 12.8438 117.794 13.1875 117.544 13.6875C116.669 15.375 115.575 17.6875 114.262 20.625C113.012 23.5 111.762 26.5312 110.512 29.7188C109.262 32.9062 108.075 35.9688 106.95 38.9062C105.825 41.8438 104.981 44.2188 104.419 46.0312C104.106 46.9688 103.637 48.25 103.012 49.875C102.45 51.5 101.762 53.2812 100.95 55.2188C100.2 57.1562 99.3562 59.2188 98.4187 61.4062C97.5437 63.5312 96.6687 65.625 95.7937 67.6875C94.9812 69.6875 94.1687 71.5938 93.3562 73.4062C92.6062 75.2188 91.95 76.75 91.3875 78C90.5125 76 89.45 73.5312 88.2 70.5938C87.0125 67.5938 85.7937 64.5938 84.5437 61.5938C83.2937 58.5312 82.1375 55.6875 81.075 53.0625C80.0125 50.375 79.2625 48.3125 78.825 46.875C78.2625 45.125 77.4187 42.7812 76.2937 39.8438C75.1687 36.8438 73.9813 33.7812 72.7313 30.6562C71.4813 27.4688 70.2313 24.4375 68.9813 21.5625C67.7313 18.625 66.6375 16.2812 65.7 14.5312C65.2 13.5938 64.45 13.125 63.45 13.125C62.95 13.125 62.5438 13.25 62.2313 13.5C61.2938 14 60.825 14.75 60.825 15.75C60.825 16.1875 60.9188 16.5938 61.1063 16.9688C61.9188 18.5312 62.9188 20.7188 64.1063 23.5312C65.2938 26.2812 66.4813 29.1875 67.6688 32.25C68.9188 35.3125 70.1063 38.3125 71.2313 41.25C72.3563 44.1875 73.2313 46.625 73.8563 48.5625C74.2313 49.8125 74.825 51.5312 75.6375 53.7188C76.5125 55.9062 77.4812 58.2812 78.5437 60.8438C79.6062 63.4062 80.7 66.0312 81.825 68.7188C82.95 71.4062 83.9812 73.875 84.9187 76.125C85.8562 78.3125 86.6375 80.1562 87.2625 81.6562C87.95 83.1562 88.325 84 88.3875 84.1875C88.575 84.6875 88.8875 85.0625 89.325 85.3125C89.825 85.625 90.325 85.7812 90.825 85.7812C91.0125 85.7812 91.3562 85.7188 91.8562 85.5938C92.1062 85.4688 92.4187 85.2188 92.7937 84.8438C93.7937 84.7188 94.4812 84.1875 94.8562 83.25C94.9187 83.0625 95.2625 82.2188 95.8875 80.7188C96.575 79.2188 97.3875 77.375 98.325 75.1875C99.325 72.9375 100.356 70.5 101.419 67.875C102.544 65.1875 103.637 62.5625 104.7 60C105.762 57.375 106.7 54.9688 107.512 52.7812C108.387 50.5938 109.044 48.875 109.481 47.625C110.106 45.6875 110.95 43.25 112.012 40.3125C113.137 37.375 114.294 34.375 115.481 31.3125C116.731 28.25 117.95 25.3438 119.137 22.5938C120.19 20.1561 121.095 18.185 121.853 16.6804C122.067 18.0766 122.28 19.7352 122.494 21.6562C122.806 24.4688 123.088 27.4375 123.338 30.5625C123.588 33.625 123.775 36.625 123.9 39.5625C124.088 42.5 124.181 44.9062 124.181 46.7812C124.181 48.0312 124.244 49.75 124.369 51.9375C124.556 54.125 124.744 56.5312 124.931 59.1562C125.181 61.7188 125.431 64.3438 125.681 67.0312C125.931 69.7188 126.15 72.1875 126.338 74.4375C126.588 76.625 126.775 78.4688 126.9 79.9688C127.088 81.4688 127.213 82.3125 127.275 82.5C127.338 83.1875 127.619 83.75 128.119 84.1875C128.619 84.625 129.213 84.8438 129.9 84.8438H131.681C131.806 84.8438 132.556 84.75 133.931 84.5625C135.369 84.375 137.15 84.1875 139.275 84C141.462 83.8125 143.837 83.625 146.4 83.4375C148.962 83.25 151.462 83.1562 153.9 83.1562C158.775 83.1562 162.619 83.375 165.431 83.8125C168.306 84.1875 169.775 84.375 169.837 84.375C170.712 84.4375 171.4 84.2812 171.9 83.9062C172.462 83.5312 172.806 83 172.931 82.3125C172.931 80.5625 172.244 79.5312 170.869 79.2188C170.744 79.2188 169.15 79 166.087 78.5625C163.087 78.125 159.025 77.9062 153.9 77.9062C151.712 77.9062 149.494 77.9688 147.244 78.0938C145.056 78.2188 142.962 78.375 140.962 78.5625C138.962 78.75 137.181 78.9375 135.619 79.125C134.119 79.3125 132.994 79.4375 132.244 79.5C132.056 78.125 131.838 76.3125 131.588 74.0625C131.4 71.8125 131.181 69.4062 130.931 66.8438C130.681 64.2188 130.431 61.625 130.181 59.0625C129.931 56.4375 129.744 54.0625 129.619 51.9375C129.806 51.9375 130.494 51.875 131.681 51.75C132.869 51.5625 134.338 51.4062 136.088 51.2812C137.838 51.0938 139.806 50.9375 141.994 50.8125C144.244 50.625 146.494 50.4688 148.744 50.3438C149.431 50.3438 150.025 50.0938 150.525 49.5938C151.025 49.0312 151.275 48.4062 151.275 47.7188C151.275 46.9688 150.994 46.3438 150.431 45.8438C149.931 45.3438 149.337 45.0938 148.65 45.0938C146.462 45.2188 144.337 45.3438 142.275 45.4688C140.212 45.5938 138.306 45.75 136.556 45.9375C134.869 46.0625 133.4 46.2188 132.15 46.4062C130.9 46.5312 129.994 46.625 129.431 46.6875C129.431 45.125 129.369 43.1562 129.244 40.7812C129.119 38.3438 128.963 35.7812 128.775 33.0938C128.588 30.4062 128.369 27.7188 128.119 25.0312C127.869 22.3438 127.588 19.9688 127.275 17.9062C127.775 18.2188 128.306 18.375 128.869 18.375C128.994 18.375 129.744 18.2812 131.119 18.0938C132.556 17.9062 134.338 17.7188 136.463 17.5312C138.65 17.2812 141.025 17.0625 143.587 16.875C146.15 16.6875 148.65 16.5938 151.087 16.5938C153.462 16.5938 155.619 16.6875 157.556 16.875C159.556 17 161.244 17.125 162.619 17.25C164.244 17.5 165.681 17.7188 166.931 17.9062C168.744 17.9062 169.806 17.2188 170.119 15.8438C170.119 14.0938 169.431 13.0625 168.056 12.75C167.931 12.6875 166.337 12.4375 163.275 12C160.275 11.5625 156.212 11.3438 151.087 11.3438C148.525 11.3438 145.931 11.4375 143.306 11.625C140.681 11.8125 138.275 12.0312 136.088 12.2812C133.963 12.4688 132.181 12.6562 130.744 12.8438C129.369 13.0312 128.619 13.125 128.494 13.125C127.744 13.25 127.15 13.625 126.713 14.25C126.4 12.9375 125.556 12.2812 124.181 12.2812C123.306 12.4062 122.65 12.7188 122.213 13.2188C122.164 13.2747 122.117 13.3315 122.074 13.3891Z" stroke="#3366FF" stroke-width="20" stroke-linejoin="round" mask="url(#path-1-outside-1_38_44)"/>
<path d="M223.819 80.25C223.444 79.6875 222.913 79.3438 222.225 79.2188C222.1 79.2188 220.506 79 217.444 78.5625C214.444 78.125 210.413 77.9062 205.35 77.9062C203.163 77.9062 200.944 77.9688 198.694 78.0938C196.444 78.2188 194.319 78.375 192.319 78.5625C190.319 78.75 188.538 78.9375 186.975 79.125C185.475 79.3125 184.35 79.4375 183.6 79.5C183.413 77.75 183.163 75.3438 182.85 72.2812C182.538 69.2188 182.225 66.0625 181.913 62.8125C181.6 59.5 181.319 56.375 181.069 53.4375C180.881 50.5 180.788 48.2812 180.788 46.7812C180.788 45.0312 180.694 42.6875 180.506 39.75C180.381 36.75 180.194 33.6562 179.944 30.4688C179.694 27.2812 179.413 24.25 179.1 21.375C178.788 18.4375 178.475 16.0938 178.163 14.3438C178.038 13.7188 177.725 13.2188 177.225 12.8438C176.725 12.4688 176.163 12.2812 175.538 12.2812C174.663 12.4062 174.006 12.7188 173.569 13.2188C173.131 13.7188 172.913 14.2812 172.913 14.9062C173.225 16.5938 173.538 18.8438 173.85 21.6562C174.163 24.4688 174.444 27.4375 174.694 30.5625C174.944 33.625 175.131 36.625 175.256 39.5625C175.444 42.5 175.538 44.9062 175.538 46.7812C175.538 48.0312 175.6 49.75 175.725 51.9375C175.913 54.125 176.1 56.5312 176.288 59.1562C176.538 61.7188 176.788 64.3438 177.038 67.0312C177.288 69.7188 177.538 72.1875 177.788 74.4375C178.038 76.625 178.225 78.4688 178.35 79.9688C178.538 81.4688 178.631 82.3125 178.631 82.5C178.756 83.1875 179.038 83.75 179.475 84.1875C179.975 84.625 180.569 84.8438 181.256 84.8438C181.506 84.8438 181.694 84.8125 181.819 84.75H182.194C182.694 84.8125 183.006 84.8438 183.131 84.8438H183.413C183.475 84.8438 184.194 84.75 185.569 84.5625C186.944 84.375 188.694 84.1875 190.819 84C192.944 83.8125 195.288 83.625 197.85 83.4375C200.413 83.25 202.913 83.1562 205.35 83.1562C210.163 83.1562 213.975 83.375 216.788 83.8125C219.663 84.1875 221.131 84.375 221.194 84.375C222.944 84.4375 223.975 83.75 224.288 82.3125C224.35 81.4375 224.194 80.75 223.819 80.25Z" stroke="#3366FF" stroke-width="20" stroke-linejoin="round" mask="url(#path-1-outside-1_38_44)"/>
<path d="M257.671 13.8541C257.777 13.6321 257.917 13.4204 258.094 13.2188C258.531 12.7188 259.188 12.4062 260.062 12.2812C261.438 12.2812 262.281 12.9375 262.594 14.25C263.031 13.625 263.625 13.25 264.375 13.125C264.5 13.125 265.25 13.0312 266.625 12.8438C268.062 12.6562 269.844 12.4688 271.969 12.2812C274.156 12.0312 276.562 11.8125 279.188 11.625C281.812 11.4375 284.406 11.3438 286.969 11.3438C292.094 11.3438 296.156 11.5625 299.156 12C302.219 12.4375 303.812 12.6875 303.938 12.75C305.312 13.0625 306 14.0938 306 15.8438C305.688 17.2188 304.625 17.9062 302.812 17.9062C301.562 17.7188 300.125 17.5 298.5 17.25C297.125 17.125 295.438 17 293.438 16.875C291.5 16.6875 289.344 16.5938 286.969 16.5938C284.531 16.5938 282.031 16.6875 279.469 16.875C276.906 17.0625 274.531 17.2812 272.344 17.5312C270.219 17.7188 268.438 17.9062 267 18.0938C266.738 18.1295 266.498 18.1619 266.281 18.1909C266.139 18.5482 265.916 18.8596 265.613 19.125C265.113 19.5 264.425 19.6875 263.55 19.6875L263.406 19.6724C263.621 21.294 263.819 23.0803 264 25.0312C264.25 27.7188 264.469 30.4062 264.656 33.0938C264.844 35.7812 265 38.3438 265.125 40.7812C265.25 43.1562 265.312 45.125 265.312 46.6875C265.875 46.625 266.781 46.5312 268.031 46.4062C269.281 46.2188 270.75 46.0625 272.438 45.9375C274.188 45.75 276.094 45.5938 278.156 45.4688C280.219 45.3438 282.344 45.2188 284.531 45.0938C285.219 45.0938 285.812 45.3438 286.312 45.8438C286.875 46.3438 287.156 46.9688 287.156 47.7188C287.156 48.4062 286.906 49.0312 286.406 49.5938C285.906 50.0938 285.312 50.3438 284.625 50.3438C282.375 50.4688 280.125 50.625 277.875 50.8125C275.688 50.9375 273.719 51.0938 271.969 51.2812C270.219 51.4062 268.75 51.5625 267.562 51.75C266.375 51.875 265.688 51.9375 265.5 51.9375C265.625 54.0625 265.812 56.4375 266.062 59.0625C266.312 61.625 266.562 64.2188 266.812 66.8438C267.062 69.4062 267.281 71.8125 267.469 74.0625C267.719 76.3125 267.938 78.125 268.125 79.5C268.875 79.4375 270 79.3125 271.5 79.125C273.062 78.9375 274.844 78.75 276.844 78.5625C278.844 78.375 280.938 78.2188 283.125 78.0938C285.375 77.9688 287.594 77.9062 289.781 77.9062C294.906 77.9062 298.969 78.125 301.969 78.5625C305.031 79 306.625 79.2188 306.75 79.2188C308.125 79.5312 308.812 80.5625 308.812 82.3125C308.688 83 308.344 83.5312 307.781 83.9062C307.281 84.2812 306.594 84.4375 305.719 84.375C305.656 84.375 304.188 84.1875 301.312 83.8125C298.5 83.375 294.656 83.1562 289.781 83.1562C287.344 83.1562 284.844 83.25 282.281 83.4375C279.719 83.625 277.344 83.8125 275.156 84C273.031 84.1875 271.25 84.375 269.812 84.5625C268.438 84.75 267.688 84.8438 267.562 84.8438H265.781C265.094 84.8438 264.5 84.625 264 84.1875C263.5 83.75 263.219 83.1875 263.156 82.5C263.094 82.3125 262.969 81.4688 262.781 79.9688C262.656 78.4688 262.469 76.625 262.219 74.4375C262.031 72.1875 261.812 69.7188 261.562 67.0312C261.312 64.3438 261.062 61.7188 260.812 59.1562C260.625 56.5312 260.438 54.125 260.25 51.9375C260.125 49.75 260.062 48.0312 260.062 46.7812C260.062 44.9062 259.969 42.5 259.781 39.5625C259.656 36.625 259.469 33.625 259.219 30.5625C258.969 27.4375 258.688 24.4688 258.375 21.6562C258.276 20.7693 258.178 19.9382 258.079 19.1632C257.589 19.1211 257.069 19.0771 256.519 19.0312C254.269 18.8438 251.55 18.6875 248.363 18.5625C245.238 18.4375 241.738 18.375 237.863 18.375H236.456C236.019 18.375 235.55 18.4062 235.05 18.4688C235.3 20.5312 235.55 22.9375 235.8 25.6875C236.113 28.375 236.363 31.0938 236.55 33.8438C236.738 36.5938 236.894 39.2188 237.019 41.7188C237.144 44.1562 237.206 46.1562 237.206 47.7188C237.206 48.9062 237.269 50.5938 237.394 52.7812C237.581 54.9688 237.769 57.375 237.956 60C238.206 62.5625 238.456 65.2188 238.706 67.9688C238.956 70.6562 239.206 73.125 239.456 75.375C239.706 77.5625 239.894 79.4062 240.019 80.9062C240.206 82.3438 240.3 83.0938 240.3 83.1562C240.3 83.8438 240.05 84.4062 239.55 84.8438C239.113 85.3438 238.488 85.6562 237.675 85.7812C236.988 85.7812 236.394 85.5625 235.894 85.125C235.394 84.6875 235.113 84.125 235.05 83.4375C235.05 83.25 234.956 82.4062 234.769 80.9062C234.581 79.4062 234.363 77.5625 234.113 75.375C233.925 73.125 233.706 70.6562 233.456 67.9688C233.206 65.2812 232.956 62.6562 232.706 60.0938C232.519 57.4688 232.331 55.0625 232.144 52.875C232.019 50.6875 231.956 48.9688 231.956 47.7188C231.956 46.0312 231.894 43.9062 231.769 41.3438C231.644 38.7812 231.456 36.125 231.206 33.375C231.019 30.625 230.8 27.9375 230.55 25.3125C230.3 22.6875 230.05 20.4375 229.8 18.5625C226.425 18.6875 223.113 18.8438 219.863 19.0312C216.613 19.1562 213.738 19.3125 211.238 19.5C208.675 19.6875 206.613 19.8438 205.05 19.9688C203.425 20.0938 202.581 20.1562 202.519 20.1562C201.831 20.2188 201.238 20 200.738 19.5C200.238 19 199.956 18.3438 199.894 17.5312C199.894 16.8438 200.113 16.25 200.55 15.75C200.988 15.25 201.55 14.9688 202.238 14.9062C202.3 14.9062 203.175 14.8438 204.863 14.7188C206.55 14.5938 208.769 14.4375 211.519 14.25C214.269 14.0625 217.363 13.875 220.8 13.6875C224.3 13.5 227.831 13.3438 231.394 13.2188H231.769C231.894 13.1562 232.144 13.1562 232.519 13.2188H235.144C236.081 13.1562 236.988 13.125 237.863 13.125C241.863 13.125 245.456 13.1875 248.644 13.3125C251.831 13.4375 254.55 13.5938 256.8 13.7812C257.099 13.8055 257.39 13.8298 257.671 13.8541Z" stroke="#3366FF" stroke-width="20" stroke-linejoin="round" mask="url(#path-1-outside-1_38_44)"/>
<path d="M379.856 51.8438C379.731 49.6562 379.669 47.9688 379.669 46.7812C379.669 45.0312 379.575 42.6875 379.388 39.75C379.263 36.75 379.075 33.6562 378.825 30.4688C378.575 27.2812 378.294 24.25 377.981 21.375C377.669 18.4375 377.325 16.0938 376.95 14.3438C376.638 12.9688 375.794 12.2812 374.419 12.2812C372.856 12.5312 371.981 13.25 371.794 14.4375C371.419 14.8125 371.169 15.1562 371.044 15.4688C370.481 16.9062 369.7 18.4688 368.7 20.1562C367.7 21.8438 366.638 23.5625 365.513 25.3125C364.388 27 363.231 28.6875 362.044 30.375C360.856 32.0625 359.763 33.5938 358.763 34.9688C358.138 35.8438 357.325 37.125 356.325 38.8125C355.325 40.4375 354.263 42.25 353.138 44.25C352.013 46.1875 350.825 48.2188 349.575 50.3438C348.388 52.4062 347.294 54.375 346.294 56.25C345.356 55.0625 343.95 53.3438 342.075 51.0938C340.263 48.7812 338.388 46.375 336.45 43.875C334.513 41.375 332.7 39 331.013 36.75C329.325 34.4375 328.106 32.6875 327.356 31.5C326.419 30 325.356 28.3438 324.169 26.5312C323.044 24.7188 321.856 22.9375 320.606 21.1875C319.419 19.375 318.2 17.6562 316.95 16.0312C315.7 14.3438 314.481 12.9062 313.294 11.7188C312.794 11.2188 312.169 10.9688 311.419 10.9688C310.794 10.9688 310.169 11.2188 309.544 11.7188C309.044 12.2188 308.794 12.8438 308.794 13.5938C308.856 14.0312 308.856 14.3438 308.794 14.5312V14.9062C309.106 16.5938 309.419 18.8438 309.731 21.6562C310.044 24.4688 310.325 27.4375 310.575 30.5625C310.825 33.625 311.013 36.625 311.138 39.5625C311.325 42.5 311.419 44.9062 311.419 46.7812C311.419 48.0312 311.481 49.75 311.606 51.9375C311.794 54.125 311.981 56.5312 312.169 59.1562C312.419 61.7188 312.669 64.3438 312.919 67.0312C313.169 69.7188 313.419 72.1875 313.669 74.4375C313.919 76.625 314.106 78.4688 314.231 79.9688C314.419 81.4688 314.513 82.3125 314.513 82.5C314.638 83.1875 314.919 83.75 315.356 84.1875C315.856 84.625 316.45 84.8438 317.138 84.8438C317.95 84.7812 318.575 84.5 319.013 84C319.513 83.5 319.763 82.9062 319.763 82.2188C319.763 82.1562 319.669 81.4062 319.481 79.9688C319.356 78.4688 319.169 76.625 318.919 74.4375C318.669 72.1875 318.419 69.7188 318.169 67.0312C317.919 64.2812 317.669 61.625 317.419 59.0625C317.231 56.4375 317.044 54.0312 316.856 51.8438C316.731 49.6562 316.669 47.9688 316.669 46.7812C316.669 45.4688 316.606 43.875 316.481 42C316.419 40.0625 316.325 38 316.2 35.8125C316.075 33.5625 315.919 31.2812 315.731 28.9688C315.544 26.5938 315.325 24.375 315.075 22.3125C316.513 24.3125 317.888 26.375 319.2 28.5C320.575 30.625 321.794 32.5625 322.856 34.3125C323.481 35.3125 324.388 36.6562 325.575 38.3438C326.825 39.9688 328.169 41.75 329.606 43.6875C331.106 45.625 332.638 47.5938 334.2 49.5938C335.825 51.5938 337.294 53.4375 338.606 55.125C339.919 56.75 341.013 58.125 341.888 59.25C342.763 60.3125 343.263 60.9062 343.388 61.0312L341.981 64.2188C341.794 64.5938 341.7 65 341.7 65.4375C341.7 66.5 342.138 67.2812 343.013 67.7812C343.45 67.9688 343.888 68.0625 344.325 68.0625C345.325 68.0625 346.075 67.625 346.575 66.75C346.575 66.6875 346.888 66.0625 347.513 64.875C348.2 63.6875 349.044 62.1875 350.044 60.375C351.106 58.5625 352.231 56.5625 353.419 54.375C354.669 52.125 355.888 49.9375 357.075 47.8125C358.325 45.6875 359.481 43.75 360.544 42C361.606 40.25 362.45 38.9375 363.075 38.0625C364.513 36 366.138 33.6875 367.95 31.125C369.763 28.5 371.419 25.9062 372.919 23.3438C373.106 25.2812 373.294 27.3438 373.481 29.5312C373.669 31.7188 373.825 33.875 373.95 36C374.138 38.125 374.263 40.125 374.325 42C374.388 43.875 374.419 45.4688 374.419 46.7812C374.419 48.0312 374.481 49.75 374.606 51.9375C374.794 54.125 374.981 56.5312 375.169 59.1562C375.419 61.7188 375.669 64.3438 375.919 67.0312C376.169 69.7188 376.388 72.1875 376.575 74.4375C376.825 76.625 377.013 78.4688 377.138 79.9688C377.325 81.4688 377.419 82.3125 377.419 82.5C377.544 83.1875 377.825 83.75 378.263 84.1875C378.763 84.625 379.356 84.8438 380.044 84.8438C380.919 84.7812 381.575 84.5 382.013 84C382.45 83.5 382.669 82.9062 382.669 82.2188C382.669 82.1562 382.575 81.4062 382.388 79.9688C382.263 78.4688 382.075 76.625 381.825 74.4375C381.638 72.1875 381.419 69.7188 381.169 67.0312C380.919 64.2812 380.669 61.625 380.419 59.0625C380.231 56.4375 380.044 54.0312 379.856 51.8438Z" stroke="#3366FF" stroke-width="20" stroke-linejoin="round" mask="url(#path-1-outside-1_38_44)"/>
<path d="M493.425 51.8438C493.3 49.6562 493.237 47.9688 493.237 46.7812C493.237 45.0312 493.144 42.6875 492.956 39.75C492.831 36.75 492.644 33.6562 492.394 30.4688C492.144 27.2812 491.862 24.25 491.55 21.375C491.237 18.4375 490.925 16.0938 490.612 14.3438C490.487 13.7188 490.175 13.2188 489.675 12.8438C489.175 12.4688 488.612 12.2812 487.987 12.2812C487.112 12.4062 486.456 12.7188 486.019 13.2188C485.581 13.7188 485.362 14.2812 485.362 14.9062C485.675 16.5938 485.987 18.8438 486.3 21.6562C486.612 24.4688 486.894 27.4375 487.144 30.5625C487.394 33.625 487.581 36.625 487.706 39.5625C487.894 42.5 487.987 44.9062 487.987 46.7812C487.987 48.0312 488.05 49.7188 488.175 51.8438C488.3 53.9688 488.456 56.2812 488.644 58.7812C488.894 61.2812 489.144 63.8438 489.394 66.4688C489.644 69.0938 489.894 71.5312 490.144 73.7812C488.706 71.5938 487.081 69.1562 485.269 66.4688C483.519 63.7188 481.8 61.0312 480.112 58.4062C478.425 55.7812 476.894 53.375 475.519 51.1875C474.144 49 473.112 47.2812 472.425 46.0312C471.737 44.8438 470.894 43.375 469.894 41.625C468.894 39.875 467.769 38 466.519 36C465.269 34 463.956 31.9375 462.581 29.8125C461.269 27.6875 459.956 25.625 458.644 23.625C457.331 21.625 456.081 19.7812 454.894 18.0938C453.769 16.3438 452.769 14.9062 451.894 13.7812C451.331 13.0938 450.612 12.75 449.737 12.75C449.175 12.75 448.644 12.9062 448.144 13.2188C447.831 12.9688 447.456 12.75 447.019 12.5625C446.644 12.375 446.206 12.2812 445.706 12.2812C444.831 12.4062 444.175 12.7188 443.737 13.2188C443.3 13.7188 443.081 14.2812 443.081 14.9062C443.394 16.5938 443.706 18.8438 444.019 21.6562C444.331 24.4688 444.612 27.4375 444.862 30.5625C445.112 33.625 445.3 36.625 445.425 39.5625C445.612 42.5 445.706 44.9062 445.706 46.7812C445.706 48.0312 445.769 49.75 445.894 51.9375C446.081 54.125 446.269 56.5312 446.456 59.1562C446.706 61.7188 446.956 64.3438 447.206 67.0312C447.456 69.7188 447.706 72.1875 447.956 74.4375C448.206 76.625 448.394 78.4688 448.519 79.9688C448.706 81.4688 448.8 82.3125 448.8 82.5C448.862 83.1875 449.144 83.75 449.644 84.1875C450.144 84.625 450.737 84.8438 451.425 84.8438C452.237 84.7812 452.862 84.5 453.3 84C453.8 83.5 454.05 82.9062 454.05 82.2188C454.05 82.1562 453.956 81.4062 453.769 79.9688C453.644 78.4688 453.456 76.625 453.206 74.4375C452.956 72.1875 452.706 69.7188 452.456 67.0312C452.206 64.2812 451.956 61.625 451.706 59.0625C451.519 56.4375 451.331 54.0312 451.144 51.8438C451.019 49.6562 450.956 47.9688 450.956 46.7812C450.956 45.2812 450.894 43.375 450.769 41.0625C450.706 38.75 450.581 36.2812 450.394 33.6562C450.206 31.0312 449.987 28.4062 449.737 25.7812C449.487 23.1562 449.237 20.8125 448.987 18.75C450.3 20.5625 451.831 22.8125 453.581 25.5C455.331 28.1875 457.081 30.9375 458.831 33.75C460.644 36.5625 462.331 39.3125 463.894 42C465.519 44.625 466.831 46.8125 467.831 48.5625C468.519 49.8125 469.55 51.5312 470.925 53.7188C472.3 55.9062 473.8 58.2812 475.425 60.8438C477.05 63.4062 478.737 66.0312 480.487 68.7188C482.3 71.4062 483.925 73.875 485.362 76.125C486.8 78.3125 488.019 80.1562 489.019 81.6562L490.706 84.1875C491.269 84.9375 492.019 85.3125 492.956 85.3125C493.456 85.3125 493.925 85.1875 494.362 84.9375C495.675 84.3125 496.331 83.4062 496.331 82.2188C496.331 82.1562 496.237 81.4062 496.05 79.9688C495.925 78.4688 495.737 76.625 495.487 74.4375C495.237 72.1875 494.987 69.7188 494.737 67.0312C494.487 64.2812 494.237 61.625 493.987 59.0625C493.8 56.4375 493.612 54.0312 493.425 51.8438Z" stroke="#3366FF" stroke-width="20" stroke-linejoin="round" mask="url(#path-1-outside-1_38_44)"/>
<path fill-rule="evenodd" clip-rule="evenodd" d="M421.195 37.7491C421.195 38.9676 420.258 39.9616 419.07 40.0529H419.075C422.962 46.8937 426.881 51.3234 429.859 54.6892C432.93 58.1608 435 60.5006 435 63.187C435 77.0615 423.832 84 412 84C400.168 84 389 77.0615 389 63.187C389 60.4992 391.071 58.1587 394.143 54.6868C397.121 51.3211 401.04 46.8921 404.925 40.0529C403.737 39.9616 402.8 38.9676 402.8 37.7491V23.8745C402.8 22.5993 403.828 21.5633 405.099 21.5633H407.4V12.3112C407.4 11.036 408.428 10 409.699 10H414.299C415.567 10 416.598 11.0335 416.598 12.3112V21.5633H418.896C420.165 21.5633 421.195 22.5968 421.195 23.8745V37.7491ZM398.195 63.187C398.195 70.123 405.089 77.0615 411.995 77.0615C418.889 77.0615 425.795 70.1255 425.795 63.187C425.795 62.1888 423.654 59.4694 421.035 56.1426C417.584 51.7583 413.302 46.319 411.995 42.3739C410.688 46.319 406.406 51.7583 402.955 56.1426C400.336 59.4694 398.195 62.1888 398.195 63.187Z" fill="white"/>
<path d="M51.6562 41.4375C49.2812 39.5625 46.5938 38.2188 43.5938 37.4062C41.6562 36.9062 39.6562 36.5625 37.5938 36.375C35.5938 36.125 33.5938 35.9062 31.5938 35.7188C27.5312 35.4062 24.3125 34.9688 21.9375 34.4062C19.625 33.8438 18.4062 32.75 18.2812 31.125C18.2812 29.5 18.5312 28.0938 19.0312 26.9062C19.5938 25.7188 20.3438 24.6875 21.2812 23.8125C22.2188 22.9375 23.3125 22.1875 24.5625 21.5625C25.8125 20.875 27.0938 20.25 28.4062 19.6875C29.5312 19.1875 30.9062 18.8438 32.5312 18.6562C34.2188 18.4062 36.0625 18.2812 38.0625 18.2812C39.9375 18.2812 41.875 18.375 43.875 18.5625C45.9375 18.75 47.875 19.0938 49.6875 19.5938C50.5625 19.6562 51.2812 19.5 51.8438 19.125C52.4062 18.75 52.75 18.25 52.875 17.625C52.9375 15.875 52.2812 14.8438 50.9062 14.5312C48.8438 14.0312 46.7188 13.6562 44.5312 13.4062C42.4062 13.1562 40.2812 13.0312 38.1562 13.0312C35.7812 13.0312 33.5625 13.1875 31.5 13.5C29.5 13.75 27.7812 14.2188 26.3438 14.9062C25.2188 15.4062 23.875 16.0312 22.3125 16.7812C20.8125 17.5312 19.3438 18.5 17.9062 19.6875C16.5312 20.875 15.3438 22.3438 14.3438 24.0938C13.4062 25.7812 12.9375 27.8438 12.9375 30.2812V30.8438C13 31.0312 13.0312 31.25 13.0312 31.5C13.2188 33.5 13.8438 35.0938 14.9062 36.2812C16.0312 37.4062 17.4375 38.3125 19.125 39C20.8125 39.625 22.6875 40.0625 24.75 40.3125C26.875 40.5625 29.0312 40.7812 31.2188 40.9688L36.8438 41.5312C38.7812 41.7188 40.5938 42.0625 42.2812 42.5625C44.7812 43.1875 46.9688 44.2812 48.8438 45.8438C50.7812 47.4062 52.375 49.125 53.625 51C54.875 52.875 55.8125 54.7812 56.4375 56.7188C57.125 58.6562 57.4688 60.2812 57.4688 61.5938L57.375 63.2812C57.3125 64.9062 57.1875 66.4688 57 67.9688C56.875 69.4688 56.4688 70.875 55.7812 72.1875C55.0938 73.5 54 74.6875 52.5 75.75C51 76.8125 48.9062 77.75 46.2188 78.5625C43.1562 79.375 40.5625 79.7812 38.4375 79.7812C36.8125 79.7812 35.125 79.5938 33.375 79.2188C31.6875 78.8438 29.5312 78.3125 26.9062 77.625C24.9062 77.0625 23.1875 76.25 21.75 75.1875C20.3125 74.0625 19.125 72.9688 18.1875 71.9062C17.25 70.7812 16.5625 69.7812 16.125 68.9062L15.4688 67.6875C15.2812 67.1875 14.9375 66.8125 14.4375 66.5625C14 66.25 13.5312 66.0938 13.0312 66.0938C12.8438 66.0938 12.5 66.1562 12 66.2812C10.9375 66.8438 10.4062 67.6562 10.4062 68.7188C10.4062 69.1562 10.5 69.5 10.6875 69.75L11.625 71.625C12.1875 72.6875 13.0625 73.9375 14.25 75.375C15.4375 76.75 16.9375 78.1562 18.75 79.5938C20.5625 80.9688 22.75 81.9688 25.3125 82.5938C28.125 83.3438 30.5 83.9375 32.4375 84.375C34.4375 84.8125 36.4375 85.0312 38.4375 85.0312C39.8125 85.0312 41.2188 84.9062 42.6562 84.6562C44.1562 84.4688 45.8125 84.0938 47.625 83.5312C51.25 82.5312 54.0625 81.25 56.0625 79.6875C58.125 78.0625 59.625 76.3438 60.5625 74.5312C61.5 72.6562 62.0625 70.7812 62.25 68.9062C62.4375 66.9688 62.5625 65.1562 62.625 63.4688L62.7188 62.0625C62.7188 59.875 62.2812 57.5312 61.4062 55.0312C60.5312 52.4688 59.2812 50.0312 57.6562 47.7188C56.0312 45.3438 54.0312 43.25 51.6562 41.4375Z" fill="white"/>
<path d="M122.074 13.3891C121.843 13.0587 121.52 12.7832 121.106 12.5625C120.606 12.375 120.2 12.2812 119.887 12.2812C119.387 12.2812 118.919 12.4062 118.481 12.6562C118.106 12.8438 117.794 13.1875 117.544 13.6875C116.669 15.375 115.575 17.6875 114.262 20.625C113.012 23.5 111.762 26.5312 110.512 29.7188C109.262 32.9062 108.075 35.9688 106.95 38.9062C105.825 41.8438 104.981 44.2188 104.419 46.0312C104.106 46.9688 103.637 48.25 103.012 49.875C102.45 51.5 101.762 53.2812 100.95 55.2188C100.2 57.1562 99.3562 59.2188 98.4187 61.4062C97.5437 63.5312 96.6687 65.625 95.7937 67.6875C94.9812 69.6875 94.1687 71.5938 93.3562 73.4062C92.6062 75.2188 91.95 76.75 91.3875 78C90.5125 76 89.45 73.5312 88.2 70.5938C87.0125 67.5938 85.7937 64.5938 84.5437 61.5938C83.2937 58.5312 82.1375 55.6875 81.075 53.0625C80.0125 50.375 79.2625 48.3125 78.825 46.875C78.2625 45.125 77.4187 42.7812 76.2937 39.8438C75.1687 36.8438 73.9813 33.7812 72.7313 30.6562C71.4813 27.4688 70.2313 24.4375 68.9813 21.5625C67.7313 18.625 66.6375 16.2812 65.7 14.5312C65.2 13.5938 64.45 13.125 63.45 13.125C62.95 13.125 62.5438 13.25 62.2313 13.5C61.2938 14 60.825 14.75 60.825 15.75C60.825 16.1875 60.9188 16.5938 61.1063 16.9688C61.9188 18.5312 62.9188 20.7188 64.1063 23.5312C65.2938 26.2812 66.4813 29.1875 67.6688 32.25C68.9188 35.3125 70.1063 38.3125 71.2313 41.25C72.3563 44.1875 73.2313 46.625 73.8563 48.5625C74.2313 49.8125 74.825 51.5312 75.6375 53.7188C76.5125 55.9062 77.4812 58.2812 78.5437 60.8438C79.6062 63.4062 80.7 66.0312 81.825 68.7188C82.95 71.4062 83.9812 73.875 84.9187 76.125C85.8562 78.3125 86.6375 80.1562 87.2625 81.6562C87.95 83.1562 88.325 84 88.3875 84.1875C88.575 84.6875 88.8875 85.0625 89.325 85.3125C89.825 85.625 90.325 85.7812 90.825 85.7812C91.0125 85.7812 91.3562 85.7188 91.8562 85.5938C92.1062 85.4688 92.4187 85.2188 92.7937 84.8438C93.7937 84.7188 94.4812 84.1875 94.8562 83.25C94.9187 83.0625 95.2625 82.2188 95.8875 80.7188C96.575 79.2188 97.3875 77.375 98.325 75.1875C99.325 72.9375 100.356 70.5 101.419 67.875C102.544 65.1875 103.637 62.5625 104.7 60C105.762 57.375 106.7 54.9688 107.512 52.7812C108.387 50.5938 109.044 48.875 109.481 47.625C110.106 45.6875 110.95 43.25 112.012 40.3125C113.137 37.375 114.294 34.375 115.481 31.3125C116.731 28.25 117.95 25.3438 119.137 22.5938C120.19 20.1561 121.095 18.185 121.853 16.6804C122.067 18.0766 122.28 19.7352 122.494 21.6562C122.806 24.4688 123.088 27.4375 123.338 30.5625C123.588 33.625 123.775 36.625 123.9 39.5625C124.088 42.5 124.181 44.9062 124.181 46.7812C124.181 48.0312 124.244 49.75 124.369 51.9375C124.556 54.125 124.744 56.5312 124.931 59.1562C125.181 61.7188 125.431 64.3438 125.681 67.0312C125.931 69.7188 126.15 72.1875 126.338 74.4375C126.588 76.625 126.775 78.4688 126.9 79.9688C127.088 81.4688 127.213 82.3125 127.275 82.5C127.338 83.1875 127.619 83.75 128.119 84.1875C128.619 84.625 129.213 84.8438 129.9 84.8438H131.681C131.806 84.8438 132.556 84.75 133.931 84.5625C135.369 84.375 137.15 84.1875 139.275 84C141.462 83.8125 143.837 83.625 146.4 83.4375C148.962 83.25 151.462 83.1562 153.9 83.1562C158.775 83.1562 162.619 83.375 165.431 83.8125C168.306 84.1875 169.775 84.375 169.837 84.375C170.712 84.4375 171.4 84.2812 171.9 83.9062C172.462 83.5312 172.806 83 172.931 82.3125C172.931 80.5625 172.244 79.5312 170.869 79.2188C170.744 79.2188 169.15 79 166.087 78.5625C163.087 78.125 159.025 77.9062 153.9 77.9062C151.712 77.9062 149.494 77.9688 147.244 78.0938C145.056 78.2188 142.962 78.375 140.962 78.5625C138.962 78.75 137.181 78.9375 135.619 79.125C134.119 79.3125 132.994 79.4375 132.244 79.5C132.056 78.125 131.838 76.3125 131.588 74.0625C131.4 71.8125 131.181 69.4062 130.931 66.8438C130.681 64.2188 130.431 61.625 130.181 59.0625C129.931 56.4375 129.744 54.0625 129.619 51.9375C129.806 51.9375 130.494 51.875 131.681 51.75C132.869 51.5625 134.338 51.4062 136.088 51.2812C137.838 51.0938 139.806 50.9375 141.994 50.8125C144.244 50.625 146.494 50.4688 148.744 50.3438C149.431 50.3438 150.025 50.0938 150.525 49.5938C151.025 49.0312 151.275 48.4062 151.275 47.7188C151.275 46.9688 150.994 46.3438 150.431 45.8438C149.931 45.3438 149.337 45.0938 148.65 45.0938C146.462 45.2188 144.337 45.3438 142.275 45.4688C140.212 45.5938 138.306 45.75 136.556 45.9375C134.869 46.0625 133.4 46.2188 132.15 46.4062C130.9 46.5312 129.994 46.625 129.431 46.6875C129.431 45.125 129.369 43.1562 129.244 40.7812C129.119 38.3438 128.963 35.7812 128.775 33.0938C128.588 30.4062 128.369 27.7188 128.119 25.0312C127.869 22.3438 127.588 19.9688 127.275 17.9062C127.775 18.2188 128.306 18.375 128.869 18.375C128.994 18.375 129.744 18.2812 131.119 18.0938C132.556 17.9062 134.338 17.7188 136.463 17.5312C138.65 17.2812 141.025 17.0625 143.587 16.875C146.15 16.6875 148.65 16.5938 151.087 16.5938C153.462 16.5938 155.619 16.6875 157.556 16.875C159.556 17 161.244 17.125 162.619 17.25C164.244 17.5 165.681 17.7188 166.931 17.9062C168.744 17.9062 169.806 17.2188 170.119 15.8438C170.119 14.0938 169.431 13.0625 168.056 12.75C167.931 12.6875 166.337 12.4375 163.275 12C160.275 11.5625 156.212 11.3438 151.087 11.3438C148.525 11.3438 145.931 11.4375 143.306 11.625C140.681 11.8125 138.275 12.0312 136.088 12.2812C133.963 12.4688 132.181 12.6562 130.744 12.8438C129.369 13.0312 128.619 13.125 128.494 13.125C127.744 13.25 127.15 13.625 126.713 14.25C126.4 12.9375 125.556 12.2812 124.181 12.2812C123.306 12.4062 122.65 12.7188 122.213 13.2188C122.164 13.2747 122.117 13.3315 122.074 13.3891Z" fill="white"/>
<path d="M223.819 80.25C223.444 79.6875 222.913 79.3438 222.225 79.2188C222.1 79.2188 220.506 79 217.444 78.5625C214.444 78.125 210.413 77.9062 205.35 77.9062C203.163 77.9062 200.944 77.9688 198.694 78.0938C196.444 78.2188 194.319 78.375 192.319 78.5625C190.319 78.75 188.538 78.9375 186.975 79.125C185.475 79.3125 184.35 79.4375 183.6 79.5C183.413 77.75 183.163 75.3438 182.85 72.2812C182.538 69.2188 182.225 66.0625 181.913 62.8125C181.6 59.5 181.319 56.375 181.069 53.4375C180.881 50.5 180.788 48.2812 180.788 46.7812C180.788 45.0312 180.694 42.6875 180.506 39.75C180.381 36.75 180.194 33.6562 179.944 30.4688C179.694 27.2812 179.413 24.25 179.1 21.375C178.788 18.4375 178.475 16.0938 178.163 14.3438C178.038 13.7188 177.725 13.2188 177.225 12.8438C176.725 12.4688 176.163 12.2812 175.538 12.2812C174.663 12.4062 174.006 12.7188 173.569 13.2188C173.131 13.7188 172.913 14.2812 172.913 14.9062C173.225 16.5938 173.538 18.8438 173.85 21.6562C174.163 24.4688 174.444 27.4375 174.694 30.5625C174.944 33.625 175.131 36.625 175.256 39.5625C175.444 42.5 175.538 44.9062 175.538 46.7812C175.538 48.0312 175.6 49.75 175.725 51.9375C175.913 54.125 176.1 56.5312 176.288 59.1562C176.538 61.7188 176.788 64.3438 177.038 67.0312C177.288 69.7188 177.538 72.1875 177.788 74.4375C178.038 76.625 178.225 78.4688 178.35 79.9688C178.538 81.4688 178.631 82.3125 178.631 82.5C178.756 83.1875 179.038 83.75 179.475 84.1875C179.975 84.625 180.569 84.8438 181.256 84.8438C181.506 84.8438 181.694 84.8125 181.819 84.75H182.194C182.694 84.8125 183.006 84.8438 183.131 84.8438H183.413C183.475 84.8438 184.194 84.75 185.569 84.5625C186.944 84.375 188.694 84.1875 190.819 84C192.944 83.8125 195.288 83.625 197.85 83.4375C200.413 83.25 202.913 83.1562 205.35 83.1562C210.163 83.1562 213.975 83.375 216.788 83.8125C219.663 84.1875 221.131 84.375 221.194 84.375C222.944 84.4375 223.975 83.75 224.288 82.3125C224.35 81.4375 224.194 80.75 223.819 80.25Z" fill="white"/>
<path d="M257.671 13.8541C257.777 13.6321 257.917 13.4204 258.094 13.2188C258.531 12.7188 259.188 12.4062 260.062 12.2812C261.438 12.2812 262.281 12.9375 262.594 14.25C263.031 13.625 263.625 13.25 264.375 13.125C264.5 13.125 265.25 13.0312 266.625 12.8438C268.062 12.6562 269.844 12.4688 271.969 12.2812C274.156 12.0312 276.562 11.8125 279.188 11.625C281.812 11.4375 284.406 11.3438 286.969 11.3438C292.094 11.3438 296.156 11.5625 299.156 12C302.219 12.4375 303.812 12.6875 303.938 12.75C305.312 13.0625 306 14.0938 306 15.8438C305.688 17.2188 304.625 17.9062 302.812 17.9062C301.562 17.7188 300.125 17.5 298.5 17.25C297.125 17.125 295.438 17 293.438 16.875C291.5 16.6875 289.344 16.5938 286.969 16.5938C284.531 16.5938 282.031 16.6875 279.469 16.875C276.906 17.0625 274.531 17.2812 272.344 17.5312C270.219 17.7188 268.438 17.9062 267 18.0938C266.738 18.1295 266.498 18.1619 266.281 18.1909C266.139 18.5482 265.916 18.8596 265.613 19.125C265.113 19.5 264.425 19.6875 263.55 19.6875L263.406 19.6724C263.621 21.294 263.819 23.0803 264 25.0312C264.25 27.7188 264.469 30.4062 264.656 33.0938C264.844 35.7812 265 38.3438 265.125 40.7812C265.25 43.1562 265.312 45.125 265.312 46.6875C265.875 46.625 266.781 46.5312 268.031 46.4062C269.281 46.2188 270.75 46.0625 272.438 45.9375C274.188 45.75 276.094 45.5938 278.156 45.4688C280.219 45.3438 282.344 45.2188 284.531 45.0938C285.219 45.0938 285.812 45.3438 286.312 45.8438C286.875 46.3438 287.156 46.9688 287.156 47.7188C287.156 48.4062 286.906 49.0312 286.406 49.5938C285.906 50.0938 285.312 50.3438 284.625 50.3438C282.375 50.4688 280.125 50.625 277.875 50.8125C275.688 50.9375 273.719 51.0938 271.969 51.2812C270.219 51.4062 268.75 51.5625 267.562 51.75C266.375 51.875 265.688 51.9375 265.5 51.9375C265.625 54.0625 265.812 56.4375 266.062 59.0625C266.312 61.625 266.562 64.2188 266.812 66.8438C267.062 69.4062 267.281 71.8125 267.469 74.0625C267.719 76.3125 267.938 78.125 268.125 79.5C268.875 79.4375 270 79.3125 271.5 79.125C273.062 78.9375 274.844 78.75 276.844 78.5625C278.844 78.375 280.938 78.2188 283.125 78.0938C285.375 77.9688 287.594 77.9062 289.781 77.9062C294.906 77.9062 298.969 78.125 301.969 78.5625C305.031 79 306.625 79.2188 306.75 79.2188C308.125 79.5312 308.812 80.5625 308.812 82.3125C308.688 83 308.344 83.5312 307.781 83.9062C307.281 84.2812 306.594 84.4375 305.719 84.375C305.656 84.375 304.188 84.1875 301.312 83.8125C298.5 83.375 294.656 83.1562 289.781 83.1562C287.344 83.1562 284.844 83.25 282.281 83.4375C279.719 83.625 277.344 83.8125 275.156 84C273.031 84.1875 271.25 84.375 269.812 84.5625C268.438 84.75 267.688 84.8438 267.562 84.8438H265.781C265.094 84.8438 264.5 84.625 264 84.1875C263.5 83.75 263.219 83.1875 263.156 82.5C263.094 82.3125 262.969 81.4688 262.781 79.9688C262.656 78.4688 262.469 76.625 262.219 74.4375C262.031 72.1875 261.812 69.7188 261.562 67.0312C261.312 64.3438 261.062 61.7188 260.812 59.1562C260.625 56.5312 260.438 54.125 260.25 51.9375C260.125 49.75 260.062 48.0312 260.062 46.7812C260.062 44.9062 259.969 42.5 259.781 39.5625C259.656 36.625 259.469 33.625 259.219 30.5625C258.969 27.4375 258.688 24.4688 258.375 21.6562C258.276 20.7693 258.178 19.9382 258.079 19.1632C257.589 19.1211 257.069 19.0771 256.519 19.0312C254.269 18.8438 251.55 18.6875 248.363 18.5625C245.238 18.4375 241.738 18.375 237.863 18.375H236.456C236.019 18.375 235.55 18.4062 235.05 18.4688C235.3 20.5312 235.55 22.9375 235.8 25.6875C236.113 28.375 236.363 31.0938 236.55 33.8438C236.738 36.5938 236.894 39.2188 237.019 41.7188C237.144 44.1562 237.206 46.1562 237.206 47.7188C237.206 48.9062 237.269 50.5938 237.394 52.7812C237.581 54.9688 237.769 57.375 237.956 60C238.206 62.5625 238.456 65.2188 238.706 67.9688C238.956 70.6562 239.206 73.125 239.456 75.375C239.706 77.5625 239.894 79.4062 240.019 80.9062C240.206 82.3438 240.3 83.0938 240.3 83.1562C240.3 83.8438 240.05 84.4062 239.55 84.8438C239.113 85.3438 238.488 85.6562 237.675 85.7812C236.988 85.7812 236.394 85.5625 235.894 85.125C235.394 84.6875 235.113 84.125 235.05 83.4375C235.05 83.25 234.956 82.4062 234.769 80.9062C234.581 79.4062 234.363 77.5625 234.113 75.375C233.925 73.125 233.706 70.6562 233.456 67.9688C233.206 65.2812 232.956 62.6562 232.706 60.0938C232.519 57.4688 232.331 55.0625 232.144 52.875C232.019 50.6875 231.956 48.9688 231.956 47.7188C231.956 46.0312 231.894 43.9062 231.769 41.3438C231.644 38.7812 231.456 36.125 231.206 33.375C231.019 30.625 230.8 27.9375 230.55 25.3125C230.3 22.6875 230.05 20.4375 229.8 18.5625C226.425 18.6875 223.113 18.8438 219.863 19.0312C216.613 19.1562 213.738 19.3125 211.238 19.5C208.675 19.6875 206.613 19.8438 205.05 19.9688C203.425 20.0938 202.581 20.1562 202.519 20.1562C201.831 20.2188 201.238 20 200.738 19.5C200.238 19 199.956 18.3438 199.894 17.5312C199.894 16.8438 200.113 16.25 200.55 15.75C200.988 15.25 201.55 14.9688 202.238 14.9062C202.3 14.9062 203.175 14.8438 204.863 14.7188C206.55 14.5938 208.769 14.4375 211.519 14.25C214.269 14.0625 217.363 13.875 220.8 13.6875C224.3 13.5 227.831 13.3438 231.394 13.2188H231.769C231.894 13.1562 232.144 13.1562 232.519 13.2188H235.144C236.081 13.1562 236.988 13.125 237.863 13.125C241.863 13.125 245.456 13.1875 248.644 13.3125C251.831 13.4375 254.55 13.5938 256.8 13.7812C257.099 13.8055 257.39 13.8298 257.671 13.8541Z" fill="white"/>
<path d="M379.856 51.8438C379.731 49.6562 379.669 47.9688 379.669 46.7812C379.669 45.0312 379.575 42.6875 379.388 39.75C379.263 36.75 379.075 33.6562 378.825 30.4688C378.575 27.2812 378.294 24.25 377.981 21.375C377.669 18.4375 377.325 16.0938 376.95 14.3438C376.638 12.9688 375.794 12.2812 374.419 12.2812C372.856 12.5312 371.981 13.25 371.794 14.4375C371.419 14.8125 371.169 15.1562 371.044 15.4688C370.481 16.9062 369.7 18.4688 368.7 20.1562C367.7 21.8438 366.638 23.5625 365.513 25.3125C364.388 27 363.231 28.6875 362.044 30.375C360.856 32.0625 359.763 33.5938 358.763 34.9688C358.138 35.8438 357.325 37.125 356.325 38.8125C355.325 40.4375 354.263 42.25 353.138 44.25C352.013 46.1875 350.825 48.2188 349.575 50.3438C348.388 52.4062 347.294 54.375 346.294 56.25C345.356 55.0625 343.95 53.3438 342.075 51.0938C340.263 48.7812 338.388 46.375 336.45 43.875C334.513 41.375 332.7 39 331.013 36.75C329.325 34.4375 328.106 32.6875 327.356 31.5C326.419 30 325.356 28.3438 324.169 26.5312C323.044 24.7188 321.856 22.9375 320.606 21.1875C319.419 19.375 318.2 17.6562 316.95 16.0312C315.7 14.3438 314.481 12.9062 313.294 11.7188C312.794 11.2188 312.169 10.9688 311.419 10.9688C310.794 10.9688 310.169 11.2188 309.544 11.7188C309.044 12.2188 308.794 12.8438 308.794 13.5938C308.856 14.0312 308.856 14.3438 308.794 14.5312V14.9062C309.106 16.5938 309.419 18.8438 309.731 21.6562C310.044 24.4688 310.325 27.4375 310.575 30.5625C310.825 33.625 311.013 36.625 311.138 39.5625C311.325 42.5 311.419 44.9062 311.419 46.7812C311.419 48.0312 311.481 49.75 311.606 51.9375C311.794 54.125 311.981 56.5312 312.169 59.1562C312.419 61.7188 312.669 64.3438 312.919 67.0312C313.169 69.7188 313.419 72.1875 313.669 74.4375C313.919 76.625 314.106 78.4688 314.231 79.9688C314.419 81.4688 314.513 82.3125 314.513 82.5C314.638 83.1875 314.919 83.75 315.356 84.1875C315.856 84.625 316.45 84.8438 317.138 84.8438C317.95 84.7812 318.575 84.5 319.013 84C319.513 83.5 319.763 82.9062 319.763 82.2188C319.763 82.1562 319.669 81.4062 319.481 79.9688C319.356 78.4688 319.169 76.625 318.919 74.4375C318.669 72.1875 318.419 69.7188 318.169 67.0312C317.919 64.2812 317.669 61.625 317.419 59.0625C317.231 56.4375 317.044 54.0312 316.856 51.8438C316.731 49.6562 316.669 47.9688 316.669 46.7812C316.669 45.4688 316.606 43.875 316.481 42C316.419 40.0625 316.325 38 316.2 35.8125C316.075 33.5625 315.919 31.2812 315.731 28.9688C315.544 26.5938 315.325 24.375 315.075 22.3125C316.513 24.3125 317.888 26.375 319.2 28.5C320.575 30.625 321.794 32.5625 322.856 34.3125C323.481 35.3125 324.388 36.6562 325.575 38.3438C326.825 39.9688 328.169 41.75 329.606 43.6875C331.106 45.625 332.638 47.5938 334.2 49.5938C335.825 51.5938 337.294 53.4375 338.606 55.125C339.919 56.75 341.013 58.125 341.888 59.25C342.763 60.3125 343.263 60.9062 343.388 61.0312L341.981 64.2188C341.794 64.5938 341.7 65 341.7 65.4375C341.7 66.5 342.138 67.2812 343.013 67.7812C343.45 67.9688 343.888 68.0625 344.325 68.0625C345.325 68.0625 346.075 67.625 346.575 66.75C346.575 66.6875 346.888 66.0625 347.513 64.875C348.2 63.6875 349.044 62.1875 350.044 60.375C351.106 58.5625 352.231 56.5625 353.419 54.375C354.669 52.125 355.888 49.9375 357.075 47.8125C358.325 45.6875 359.481 43.75 360.544 42C361.606 40.25 362.45 38.9375 363.075 38.0625C364.513 36 366.138 33.6875 367.95 31.125C369.763 28.5 371.419 25.9062 372.919 23.3438C373.106 25.2812 373.294 27.3438 373.481 29.5312C373.669 31.7188 373.825 33.875 373.95 36C374.138 38.125 374.263 40.125 374.325 42C374.388 43.875 374.419 45.4688 374.419 46.7812C374.419 48.0312 374.481 49.75 374.606 51.9375C374.794 54.125 374.981 56.5312 375.169 59.1562C375.419 61.7188 375.669 64.3438 375.919 67.0312C376.169 69.7188 376.388 72.1875 376.575 74.4375C376.825 76.625 377.013 78.4688 377.138 79.9688C377.325 81.4688 377.419 82.3125 377.419 82.5C377.544 83.1875 377.825 83.75 378.263 84.1875C378.763 84.625 379.356 84.8438 380.044 84.8438C380.919 84.7812 381.575 84.5 382.013 84C382.45 83.5 382.669 82.9062 382.669 82.2188C382.669 82.1562 382.575 81.4062 382.388 79.9688C382.263 78.4688 382.075 76.625 381.825 74.4375C381.638 72.1875 381.419 69.7188 381.169 67.0312C380.919 64.2812 380.669 61.625 380.419 59.0625C380.231 56.4375 380.044 54.0312 379.856 51.8438Z" fill="white"/>
<path d="M493.425 51.8438C493.3 49.6562 493.237 47.9688 493.237 46.7812C493.237 45.0312 493.144 42.6875 492.956 39.75C492.831 36.75 492.644 33.6562 492.394 30.4688C492.144 27.2812 491.862 24.25 491.55 21.375C491.237 18.4375 490.925 16.0938 490.612 14.3438C490.487 13.7188 490.175 13.2188 489.675 12.8438C489.175 12.4688 488.612 12.2812 487.987 12.2812C487.112 12.4062 486.456 12.7188 486.019 13.2188C485.581 13.7188 485.362 14.2812 485.362 14.9062C485.675 16.5938 485.987 18.8438 486.3 21.6562C486.612 24.4688 486.894 27.4375 487.144 30.5625C487.394 33.625 487.581 36.625 487.706 39.5625C487.894 42.5 487.987 44.9062 487.987 46.7812C487.987 48.0312 488.05 49.7188 488.175 51.8438C488.3 53.9688 488.456 56.2812 488.644 58.7812C488.894 61.2812 489.144 63.8438 489.394 66.4688C489.644 69.0938 489.894 71.5312 490.144 73.7812C488.706 71.5938 487.081 69.1562 485.269 66.4688C483.519 63.7188 481.8 61.0312 480.112 58.4062C478.425 55.7812 476.894 53.375 475.519 51.1875C474.144 49 473.112 47.2812 472.425 46.0312C471.737 44.8438 470.894 43.375 469.894 41.625C468.894 39.875 467.769 38 466.519 36C465.269 34 463.956 31.9375 462.581 29.8125C461.269 27.6875 459.956 25.625 458.644 23.625C457.331 21.625 456.081 19.7812 454.894 18.0938C453.769 16.3438 452.769 14.9062 451.894 13.7812C451.331 13.0938 450.612 12.75 449.737 12.75C449.175 12.75 448.644 12.9062 448.144 13.2188C447.831 12.9688 447.456 12.75 447.019 12.5625C446.644 12.375 446.206 12.2812 445.706 12.2812C444.831 12.4062 444.175 12.7188 443.737 13.2188C443.3 13.7188 443.081 14.2812 443.081 14.9062C443.394 16.5938 443.706 18.8438 444.019 21.6562C444.331 24.4688 444.612 27.4375 444.862 30.5625C445.112 33.625 445.3 36.625 445.425 39.5625C445.612 42.5 445.706 44.9062 445.706 46.7812C445.706 48.0312 445.769 49.75 445.894 51.9375C446.081 54.125 446.269 56.5312 446.456 59.1562C446.706 61.7188 446.956 64.3438 447.206 67.0312C447.456 69.7188 447.706 72.1875 447.956 74.4375C448.206 76.625 448.394 78.4688 448.519 79.9688C448.706 81.4688 448.8 82.3125 448.8 82.5C448.862 83.1875 449.144 83.75 449.644 84.1875C450.144 84.625 450.737 84.8438 451.425 84.8438C452.237 84.7812 452.862 84.5 453.3 84C453.8 83.5 454.05 82.9062 454.05 82.2188C454.05 82.1562 453.956 81.4062 453.769 79.9688C453.644 78.4688 453.456 76.625 453.206 74.4375C452.956 72.1875 452.706 69.7188 452.456 67.0312C452.206 64.2812 451.956 61.625 451.706 59.0625C451.519 56.4375 451.331 54.0312 451.144 51.8438C451.019 49.6562 450.956 47.9688 450.956 46.7812C450.956 45.2812 450.894 43.375 450.769 41.0625C450.706 38.75 450.581 36.2812 450.394 33.6562C450.206 31.0312 449.987 28.4062 449.737 25.7812C449.487 23.1562 449.237 20.8125 448.987 18.75C450.3 20.5625 451.831 22.8125 453.581 25.5C455.331 28.1875 457.081 30.9375 458.831 33.75C460.644 36.5625 462.331 39.3125 463.894 42C465.519 44.625 466.831 46.8125 467.831 48.5625C468.519 49.8125 469.55 51.5312 470.925 53.7188C472.3 55.9062 473.8 58.2812 475.425 60.8438C477.05 63.4062 478.737 66.0312 480.487 68.7188C482.3 71.4062 483.925 73.875 485.362 76.125C486.8 78.3125 488.019 80.1562 489.019 81.6562L490.706 84.1875C491.269 84.9375 492.019 85.3125 492.956 85.3125C493.456 85.3125 493.925 85.1875 494.362 84.9375C495.675 84.3125 496.331 83.4062 496.331 82.2188C496.331 82.1562 496.237 81.4062 496.05 79.9688C495.925 78.4688 495.737 76.625 495.487 74.4375C495.237 72.1875 494.987 69.7188 494.737 67.0312C494.487 64.2812 494.237 61.625 493.987 59.0625C493.8 56.4375 493.612 54.0312 493.425 51.8438Z" fill="white"/>
</svg>
